<svg width="953" height="237" viewBox="0 0 953 237" fill="none" xmlns="http://www.w3.org/2000/svg">
<path fill-rule="evenodd" clip-rule="evenodd" d="M-272.947 229.578L-272.952 229.577C-287.993 224.764 -299.957 218.637 -308.822 211.183L-309.11 210.941L-295.196 179.711L-294.691 180.107C-286.342 186.667 -275.993 192.143 -263.633 196.529C-251.286 200.91 -238.642 203.1 -225.7 203.1C-214.73 203.1 -205.893 201.903 -199.166 199.529C-192.423 197.149 -187.517 193.994 -184.394 190.093C-181.262 185.98 -179.7 181.387 -179.7 176.3C-179.7 170.037 -181.943 165.083 -186.418 161.386L-186.428 161.378C-190.962 157.435 -196.893 154.365 -204.242 152.18L-204.25 152.177L-204.258 152.175C-211.439 149.781 -219.522 147.586 -228.508 145.588L-228.511 145.588C-237.32 143.586 -246.23 141.283 -255.239 138.681L-255.252 138.677C-264.082 135.867 -272.214 132.354 -279.647 128.135L-279.654 128.131L-279.661 128.127C-286.926 123.687 -292.881 117.833 -297.521 110.57C-302.186 103.268 -304.5 93.9667 -304.5 82.7004C-304.5 71.2073 -301.474 60.7136 -295.421 51.2314L-295.42 51.2291C-289.159 41.5345 -279.777 33.8773 -267.307 28.2455C-254.622 22.4065 -238.645 19.5004 -219.4 19.5004C-206.757 19.5004 -194.215 21.1059 -181.775 24.3163C-169.331 27.5276 -158.479 32.1474 -149.227 38.1816L-148.882 38.4067L-161.556 69.6279L-162.056 69.3299C-171.418 63.7527 -181.074 59.6717 -191.026 57.0843L-191.035 57.082C-200.996 54.2927 -210.551 52.9004 -219.7 52.9004C-230.464 52.9004 -239.197 54.1968 -245.919 56.7666C-252.458 59.3428 -257.269 62.694 -260.397 66.7972C-263.331 70.9068 -264.8 75.6021 -264.8 80.9004C-264.8 87.1674 -262.654 92.2262 -258.372 96.1225C-253.836 99.8671 -248.003 102.837 -240.856 105.021C-233.467 107.218 -225.277 109.416 -216.286 111.613C-207.277 113.616 -198.368 115.918 -189.558 118.521L-189.7 119M-147.7 146.3C-143.1 153.5 -140.8 162.6 -140.8 173.6C-140.8 184.8 -143.9 195.2 -150.1 204.8C-156.1 214.2 -165.4 221.8 -178 227.6C-190.6 233.2 -206.5 236 -225.7 236C-242.1 236 -257.8 233.7 -272.8 229.1C-287.8 224.3 -299.7 218.2 -308.5 210.8L-295 180.5C-294.865 180.606 -294.73 180.712 -294.594 180.817C-286.265 187.277 -276.001 192.671 -263.8 197C-251.4 201.4 -238.7 203.6 -225.7 203.6C-214.7 203.6 -205.8 202.4 -199 200C-192.2 197.6 -187.2 194.4 -184 190.4C-180.8 186.2 -179.2 181.5 -179.2 176.3C-179.2 169.9 -181.5 164.8 -186.1 161C-190.7 157 -196.7 153.9 -204.1 151.7C-211.3 149.3 -219.4 147.1 -228.4 145.1C-237.2 143.1 -246.1 140.8 -255.1 138.2C-263.9 135.4 -272 131.9 -279.4 127.7C-286.6 123.3 -292.5 117.5 -297.1 110.3C-301.7 103.1 -304 93.9004 -304 82.7004C-304 71.3004 -301 60.9004 -295 51.5004C-288.8 41.9004 -279.5 34.3004 -267.1 28.7004C-254.5 22.9004 -238.6 20.0004 -219.4 20.0004C-206.8 20.0004 -194.3 21.6004 -181.9 24.8004C-169.5 28.0004 -158.7 32.6004 -149.5 38.6004L-161.8 68.9004C-161.945 68.8141 -162.09 68.7281 -162.235 68.6425C-171.499 63.1743 -181.054 59.1603 -190.9 56.6004C-200.9 53.8004 -210.5 52.4004 -219.7 52.4004C-230.5 52.4004 -239.3 53.7004 -246.1 56.3004C-252.7 58.9004 -257.6 62.3004 -260.8 66.5004C-263.8 70.7004 -265.3 75.5004 -265.3 80.9004C-265.3 87.3004 -263.1 92.5004 -258.7 96.5004C-254.1 100.3 -248.2 103.3 -241 105.5C-233.6 107.7 -225.4 109.9 -216.4 112.1M-149.678 205.069C-155.741 214.568 -165.125 222.224 -177.791 228.055L-177.797 228.057C-190.481 233.695 -206.456 236.5 -225.7 236.5C-242.147 236.5 -257.897 234.194 -272.947 229.578M-149.678 205.069C-143.428 195.391 -140.3 184.898 -140.3 173.6C-140.3 162.534 -142.613 153.335 -147.276 146.036C-151.72 138.765 -157.68 133.007 -165.151 128.767M-77.4596 225.044L-77.4675 225.039C-90.7426 217.798 -101.11 207.937 -108.557 195.457L-108.56 195.451C-115.809 182.968 -119.428 168.779 -119.428 152.9C-119.428 136.825 -115.911 122.637 -108.862 110.352L-108.86 110.349C-101.616 97.8729 -91.7519 88.1091 -79.2739 81.065L-79.2709 81.0633C-66.5887 74.0176 -52.2035 70.5004 -36.1281 70.5004C-20.453 70.5004 -6.46744 73.9175 5.81537 80.7636C18.0974 87.6093 27.7631 97.2761 34.8073 109.755C41.8568 122.242 45.3719 136.93 45.3719 153.8C45.3719 155.414 45.2715 157.223 45.0719 159.225C45.0711 161.233 44.9703 163.143 44.7689 164.956L44.7195 165.4H-80.8205C-79.7816 170.655 -77.9399 175.502 -75.2983 179.945C-70.9492 187.259 -64.8223 192.894 -56.9044 196.853C-48.9843 200.813 -39.8631 202.8 -29.528 202.8C-20.58 202.8 -12.5428 201.409 -5.40927 198.634C1.71634 195.863 8.05441 191.508 13.6064 185.559L13.985 185.154L34.7326 208.998L34.4516 209.326C27.1969 217.79 18.0311 224.334 6.96484 228.962L6.9606 228.963C-3.91003 233.392 -16.376 235.6 -30.4281 235.6C-48.2944 235.6 -63.9764 232.087 -77.4596 225.044ZM-81.3301 165.4C-80.2844 170.745 -78.4171 175.678 -75.7281 180.2C-71.3281 187.6 -65.1281 193.3 -57.1281 197.3C-49.1281 201.3 -39.9281 203.3 -29.528 203.3C-20.528 203.3 -12.4281 201.9 -5.22806 199.1C1.8248 196.358 8.10999 192.08 13.6276 186.266C13.7427 186.145 13.8575 186.023 13.972 185.9L34.072 209C26.8719 217.4 17.7719 223.9 6.77194 228.5C-4.02805 232.9 -16.4281 235.1 -30.4281 235.1C-48.2281 235.1 -63.8281 231.6 -77.2281 224.6C-90.4281 217.4 -100.728 207.6 -108.128 195.2C-115.328 182.8 -118.928 168.7 -118.928 152.9C-118.928 136.9 -115.428 122.8 -108.428 110.6C-101.228 98.2004 -91.4281 88.5004 -79.028 81.5004C-66.428 74.5004 -52.1281 71.0004 -36.1281 71.0004C-20.528 71.0004 -6.62805 74.4004 5.57193 81.2004C17.7719 88.0004 27.3719 97.6004 34.3719 110C41.3719 122.4 44.8719 137 44.8719 153.8C44.8719 155.4 44.7719 157.2 44.5719 159.2C44.5719 161.2 44.4719 163.1 44.2719 164.9H-81.4253C-81.3943 165.067 -81.3626 165.234 -81.3301 165.4ZM9.40732 140C9.38721 139.833 9.3663 139.667 9.34457 139.5C8.57993 133.647 6.82236 128.314 4.07193 123.5C0.0719299 116.5 -5.42807 111 -12.4281 107C-19.2281 103 -27.1281 101 -36.1281 101C-45.3281 101 -53.4281 103 -60.4281 107C-67.2281 111 -72.6281 116.6 -76.6281 123.8C-79.1565 128.458 -80.8438 133.691 -81.6899 139.5C-81.7141 139.667 -81.7376 139.833 -81.7604 140H9.40732ZM-81.1846 139.5H8.8403C8.07883 133.731 6.3429 128.482 3.63782 123.748C-0.317871 116.826 -5.75363 111.39 -12.6761 107.435L-12.6816 107.431C-19.3944 103.483 -27.2044 101.5 -36.1281 101.5C-45.2521 101.5 -53.2632 103.483 -60.1768 107.433C-66.8946 111.385 -72.2315 116.917 -76.1896 124.041C-78.6757 128.621 -80.3427 133.773 -81.1846 139.5ZM80.393 233.5V72.3004H117.093V94.6086C121.622 88.1193 127.476 82.9021 134.652 78.9621L134.656 78.9601C145.148 73.3108 158.135 70.5004 173.593 70.5004H174.093V107.341L173.472 107.185C171.905 106.794 170.446 106.6 169.093 106.6H169.057L169.022 106.595C167.646 106.399 166.269 106.3 164.893 106.3C150.798 106.3 139.635 110.466 131.347 118.754L131.342 118.758C123.072 126.832 118.893 138.981 118.893 155.3V233.5H80.393ZM117.093 95.4912C116.924 95.7402 116.758 95.991 116.593 96.2436V72.8004H80.893V233H118.393V155.3C118.393 138.9 122.593 126.6 130.993 118.4C139.393 110 150.693 105.8 164.893 105.8C166.293 105.8 167.693 105.9 169.093 106.1C170.346 106.1 171.68 106.261 173.093 106.581C173.259 106.619 173.425 106.658 173.593 106.7V71.0004C173.426 71.0004 173.259 71.0007 173.093 71.0014C157.914 71.0614 145.18 73.8611 134.893 79.4004C127.567 83.4227 121.633 88.7863 117.093 95.4912ZM253.534 233.5L184.406 72.3004H224.497L273.84 190.272L324.936 72.3004H362.023L292.894 233.5H253.534ZM273.832 191.549L224.164 72.8004H185.164L253.864 233H292.564L361.264 72.8004H325.264L273.832 191.549ZM384.202 233.5V72.3004H422.702V233.5H384.202ZM385.856 40.1617L385.848 40.154C381.355 35.6606 379.102 30.2335 379.102 23.9004C379.102 17.3717 381.352 11.9384 385.856 7.6387C390.559 3.14071 396.487 0.900391 403.602 0.900391C410.705 0.900391 416.533 3.03385 421.039 7.33074C425.744 11.4264 428.102 16.6624 428.102 23.0004C428.102 29.7239 425.856 35.4492 421.363 40.146L421.355 40.154C416.847 44.6625 410.912 46.9004 403.602 46.9004C396.487 46.9004 390.559 44.6599 385.856 40.1617ZM420.702 7.70039C416.302 3.50039 410.602 1.40039 403.602 1.40039C396.602 1.40039 390.802 3.60039 386.202 8.00038C381.802 12.2004 379.602 17.5004 379.602 23.9004C379.602 30.1004 381.802 35.4004 386.202 39.8004C390.802 44.2004 396.602 46.4004 403.602 46.4004C410.802 46.4004 416.602 44.2004 421.002 39.8004C425.402 35.2004 427.602 29.6004 427.602 23.0004C427.602 16.8004 425.302 11.7004 420.702 7.70039ZM499.686 225.042L499.678 225.038C486.603 217.796 476.338 207.935 468.891 195.457C461.44 182.972 457.72 168.782 457.72 152.9C457.72 136.822 461.439 122.631 468.891 110.344C476.338 97.8648 486.606 88.102 499.683 81.0602L499.686 81.0587C512.967 74.0159 528.049 70.5004 544.92 70.5004C560.588 70.5004 574.372 73.7145 586.255 80.1589C598.347 86.4076 607.52 95.6835 613.766 107.974L613.98 108.395L584.355 125.675L584.098 125.267C579.338 117.732 573.502 112.199 566.592 108.645L566.586 108.642C559.861 105.082 552.542 103.3 544.62 103.3C535.495 103.3 527.278 105.283 519.958 109.24C512.645 113.193 506.913 118.923 502.758 126.442L502.755 126.447C498.606 133.757 496.52 142.568 496.52 152.9C496.52 163.232 498.606 172.145 502.758 179.658C506.912 186.975 512.643 192.606 519.958 196.561C527.278 200.517 535.495 202.5 544.62 202.5C552.542 202.5 559.861 200.719 566.586 197.158L566.592 197.156C573.502 193.602 579.338 188.069 584.098 180.533L584.355 180.125L613.983 197.408L613.765 197.83C607.518 209.919 598.347 219.291 586.261 225.939L586.259 225.94C574.375 232.386 560.59 235.6 544.92 235.6C528.049 235.6 512.967 232.085 499.686 225.042ZM502.32 179.9C498.12 172.3 496.02 163.3 496.02 152.9C496.02 142.5 498.12 133.6 502.32 126.2C506.52 118.6 512.32 112.8 519.72 108.8C527.12 104.8 535.42 102.8 544.62 102.8C552.62 102.8 560.02 104.6 566.82 108.2C573.82 111.8 579.72 117.4 584.52 125L613.32 108.2C607.12 96.0004 598.02 86.8004 586.02 80.6004C574.22 74.2004 560.52 71.0004 544.92 71.0004C528.12 71.0004 513.12 74.5004 499.92 81.5004C486.92 88.5004 476.72 98.2004 469.32 110.6C461.92 122.8 458.22 136.9 458.22 152.9C458.22 168.7 461.92 182.8 469.32 195.2C476.72 207.6 486.92 217.4 499.92 224.6C513.12 231.6 528.12 235.1 544.92 235.1C560.52 235.1 574.22 231.9 586.02 225.5C598.02 218.9 607.12 209.6 613.32 197.6L584.52 180.8C579.72 188.4 573.82 194 566.82 197.6C560.02 201.2 552.62 203 544.62 203C535.42 203 527.12 201 519.72 197C512.32 193 506.52 187.3 502.32 179.9ZM671.661 225.044L671.654 225.039C658.378 217.798 648.011 207.937 640.564 195.457L640.561 195.451C633.312 182.968 629.693 168.779 629.693 152.9C629.693 136.825 633.21 122.637 640.259 110.352L640.261 110.349C647.505 97.8729 657.369 88.1091 669.847 81.065L669.85 81.0633C682.532 74.0176 696.918 70.5004 712.993 70.5004C728.668 70.5004 742.654 73.9175 754.937 80.7636C767.219 87.6093 776.884 97.2761 783.928 109.755C790.978 122.242 794.493 136.93 794.493 153.8C794.493 155.414 794.393 157.222 794.193 159.225C794.192 161.232 794.091 163.143 793.89 164.956L793.841 165.4H668.301C669.339 170.655 671.181 175.502 673.823 179.945C678.172 187.259 684.299 192.894 692.217 196.853C700.137 200.813 709.258 202.8 719.593 202.8C728.541 202.8 736.578 201.409 743.712 198.634C750.838 195.863 757.176 191.508 762.728 185.559L763.106 185.154L783.854 208.998L783.573 209.326C776.318 217.79 767.152 224.334 756.086 228.962L756.082 228.963C745.211 233.392 732.745 235.6 718.693 235.6C700.827 235.6 685.145 232.087 671.661 225.044ZM667.791 165.4C668.837 170.745 670.704 175.678 673.393 180.2C677.793 187.6 683.993 193.3 691.993 197.3C699.993 201.3 709.193 203.3 719.593 203.3C728.593 203.3 736.693 201.9 743.893 199.1C750.946 196.358 757.231 192.08 762.749 186.266C762.864 186.145 762.979 186.023 763.093 185.9L783.193 209C775.993 217.4 766.893 223.9 755.893 228.5C745.093 232.9 732.693 235.1 718.693 235.1C700.893 235.1 685.293 231.6 671.893 224.6C658.693 217.4 648.393 207.6 640.993 195.2C633.793 182.8 630.193 168.7 630.193 152.9C630.193 136.9 633.693 122.8 640.693 110.6C647.893 98.2004 657.693 88.5004 670.093 81.5004C682.693 74.5004 696.993 71.0004 712.993 71.0004C728.593 71.0004 742.493 74.4004 754.693 81.2004C766.893 88.0004 776.493 97.6004 783.493 110C790.493 122.4 793.993 137 793.993 153.8C793.993 155.4 793.893 157.2 793.693 159.2C793.693 161.2 793.593 163.1 793.393 164.9H667.696C667.727 165.067 667.758 165.234 667.791 165.4ZM758.528 140C758.508 139.833 758.487 139.667 758.466 139.5C757.701 133.647 755.944 128.314 753.193 123.5C749.193 116.5 743.693 111 736.693 107C729.893 103 721.993 101 712.993 101C703.793 101 695.693 103 688.693 107C681.893 111 676.493 116.6 672.493 123.8C669.965 128.458 668.277 133.691 667.431 139.5C667.407 139.667 667.383 139.833 667.361 140H758.528ZM667.937 139.5H757.961C757.2 133.731 755.464 128.482 752.759 123.748C748.803 116.826 743.368 111.39 736.445 107.435L736.44 107.431C729.727 103.483 721.917 101.5 712.993 101.5C703.869 101.5 695.858 103.483 688.944 107.433C682.226 111.385 676.888 116.918 672.93 124.043C670.445 128.623 668.778 133.774 667.937 139.5ZM840.682 230.483L840.673 230.48C828.442 226.871 818.688 222.552 811.429 217.511L811.072 217.263L825.917 187.881L826.383 188.179C833.537 192.749 842.093 196.532 852.058 199.521C862.013 202.508 871.965 204 881.914 204C893.694 204 902.075 202.399 907.152 199.275L907.159 199.27C912.437 196.143 915.014 191.992 915.014 186.8C915.014 182.565 913.297 179.432 909.854 177.327L909.845 177.322L909.837 177.316C906.306 174.963 901.672 173.182 895.913 171.99C890.126 170.793 883.637 169.694 876.445 168.696L876.443 168.695C869.43 167.693 862.318 166.391 855.106 164.788L855.098 164.787L855.09 164.785C848.052 162.975 841.613 160.46 835.773 157.238L835.761 157.232C829.894 153.792 825.136 149.238 821.494 143.571C817.825 137.865 816.014 130.361 816.014 121.1C816.014 110.801 818.944 101.892 824.817 94.397C830.681 86.7132 838.86 80.8631 849.33 76.8355C860.002 72.6071 872.567 70.5004 887.014 70.5004C897.852 70.5004 908.787 71.7046 919.821 74.1119C930.858 76.5201 940.014 79.9368 947.275 84.3737L947.668 84.6142L932.817 114.008L932.355 113.728C924.799 109.154 917.152 106.077 909.414 104.49L909.406 104.489L909.399 104.487C901.836 102.696 894.274 101.8 886.714 101.8C875.349 101.8 866.961 103.498 861.478 106.825C856.187 110.157 853.614 114.314 853.614 119.3C853.614 123.955 855.348 127.388 858.792 129.684C862.328 132.042 866.969 133.923 872.732 135.314C878.512 136.71 884.893 137.906 891.877 138.904C899.098 139.707 906.218 141.011 913.239 142.816C920.272 144.625 926.709 147.138 932.547 150.358C938.622 153.397 943.488 157.757 947.135 163.43C950.802 169.134 952.614 176.537 952.614 185.6C952.614 195.708 949.579 204.519 943.505 212.012C937.638 219.496 929.258 225.342 918.395 229.566L918.388 229.569C907.518 233.595 894.557 235.6 879.514 235.6C866.071 235.6 853.127 233.895 840.682 230.483ZM943.114 211.7C949.114 204.3 952.114 195.6 952.114 185.6C952.114 176.6 950.314 169.3 946.714 163.7C943.114 158.1 938.314 153.8 932.314 150.8C926.514 147.6 920.114 145.1 913.114 143.3C906.114 141.5 899.014 140.2 891.814 139.4C884.814 138.4 878.414 137.2 872.614 135.8C866.814 134.4 862.114 132.5 858.514 130.1C854.914 127.7 853.114 124.1 853.114 119.3C853.114 114.1 855.814 109.8 861.214 106.4C866.814 103 875.314 101.3 886.714 101.3C894.314 101.3 901.914 102.2 909.514 104C917.167 105.57 924.724 108.584 932.185 113.042C932.328 113.128 932.471 113.214 932.614 113.3L947.014 84.8004C939.814 80.4004 930.714 77.0004 919.714 74.6004C908.714 72.2004 897.814 71.0004 887.014 71.0004C872.614 71.0004 860.114 73.1004 849.514 77.3004C839.114 81.3004 831.014 87.1004 825.214 94.7004C819.414 102.1 816.514 110.9 816.514 121.1C816.514 130.3 818.314 137.7 821.914 143.3C825.514 148.9 830.214 153.4 836.014 156.8C841.814 160 848.214 162.5 855.214 164.3C862.414 165.9 869.514 167.2 876.514 168.2C883.714 169.2 890.214 170.3 896.014 171.5C901.814 172.7 906.514 174.5 910.114 176.9C913.714 179.1 915.514 182.4 915.514 186.8C915.514 192.2 912.814 196.5 907.414 199.7C902.214 202.9 893.714 204.5 881.914 204.5C871.914 204.5 861.914 203 851.914 200C842.11 197.059 833.651 193.349 826.538 188.87C826.396 188.78 826.255 188.69 826.114 188.6L811.714 217.1C818.914 222.1 828.614 226.4 840.814 230C853.214 233.4 866.114 235.1 879.514 235.1C894.514 235.1 907.414 233.1 918.214 229.1C929.014 224.9 937.314 219.1 943.114 211.7ZM384.702 233H422.202V72.8004H384.702V233Z" fill="#E33A23"/>
</svg>
