<svg width="1110" height="294" viewBox="0 0 1110 294" fill="none" xmlns="http://www.w3.org/2000/svg">
<path fill-rule="evenodd" clip-rule="evenodd" d="M0.700012 233.5V22.5004H87.6C106.251 22.5004 122.225 25.5083 135.505 31.5444C148.984 37.5798 159.363 46.2403 166.621 57.53C173.88 68.8227 177.5 82.2199 177.5 97.7004C177.5 113.181 173.88 126.578 166.621 137.871C159.363 149.161 148.984 157.821 135.505 163.856C122.225 169.893 106.251 172.9 87.6 172.9H40.7V233.5H0.700012ZM40.2 172.4H87.6C106.2 172.4 122.1 169.4 135.3 163.4C148.7 157.4 159 148.8 166.2 137.6C173.4 126.4 177 113.1 177 97.7004C177 82.3004 173.4 69.0004 166.2 57.8004C159 46.6004 148.7 38.0004 135.3 32.0004C122.1 26.0004 106.2 23.0004 87.6 23.0004H1.20001V233H40.2V172.4ZM85.8 139.4C103 139.4 115.9 135.8 124.5 128.6C133.3 121.2 137.7 110.9 137.7 97.7004C137.7 84.3004 133.3 74.0004 124.5 66.8004C115.9 59.6004 103 56.0004 85.8 56.0004H40.2V139.4H85.8ZM40.7 138.9H85.8C102.942 138.9 115.705 135.311 124.178 128.218C132.848 120.927 137.2 110.777 137.2 97.7004C137.2 84.4206 132.846 74.275 124.183 67.1874L124.179 67.1838C115.706 60.0902 102.942 56.5004 85.8 56.5004H40.7V138.9ZM210.381 233.5V72.3004H247.081V94.6086C251.61 88.1193 257.464 82.9021 264.641 78.9621L264.644 78.9601C275.136 73.3108 288.123 70.5004 303.581 70.5004H304.081V107.341L303.46 107.185C301.893 106.794 300.434 106.6 299.081 106.6H299.046L299.011 106.595C297.634 106.399 296.257 106.3 294.881 106.3C280.786 106.3 269.623 110.466 261.335 118.754L261.331 118.758C253.06 126.832 248.881 138.981 248.881 155.3V233.5H210.381ZM247.081 95.4912C246.913 95.7402 246.746 95.991 246.581 96.2436V72.8004H210.881V233H248.381V155.3C248.381 138.9 252.581 126.6 260.981 118.4C269.381 110 280.681 105.8 294.881 105.8C296.281 105.8 297.681 105.9 299.081 106.1C300.334 106.1 301.668 106.261 303.081 106.581C303.247 106.619 303.414 106.658 303.581 106.7V71.0004C303.414 71.0004 303.248 71.0007 303.081 71.0014C287.902 71.0614 275.168 73.8611 264.881 79.4004C257.555 83.4227 251.622 88.7863 247.081 95.4912ZM361.888 225.039L361.883 225.036C349.008 217.794 338.844 207.933 331.399 195.457C323.948 182.972 320.228 168.782 320.228 152.9C320.228 136.821 323.947 122.63 331.399 110.343C338.845 97.8662 349.011 88.1039 361.888 81.0617C374.771 74.0167 389.455 70.5004 405.928 70.5004C422.6 70.5004 437.385 74.0162 450.268 81.0617C463.343 88.1026 473.51 97.7645 480.758 110.045C488.21 122.332 491.928 136.623 491.928 152.9C491.928 168.781 488.208 182.971 480.758 195.455C473.512 207.934 463.345 217.796 450.27 225.038L450.268 225.039C437.385 232.085 422.6 235.6 405.928 235.6C389.455 235.6 374.771 232.084 361.888 225.039ZM480.328 195.2C487.728 182.8 491.428 168.7 491.428 152.9C491.428 136.7 487.728 122.5 480.328 110.3C473.128 98.1004 463.028 88.5004 450.028 81.5004C437.228 74.5004 422.528 71.0004 405.928 71.0004C389.528 71.0004 374.928 74.5004 362.128 81.5004C349.328 88.5004 339.228 98.2004 331.828 110.6C324.428 122.8 320.728 136.9 320.728 152.9C320.728 168.7 324.428 182.8 331.828 195.2C339.228 207.6 349.328 217.4 362.128 224.6C374.928 231.6 389.528 235.1 405.928 235.1C422.528 235.1 437.228 231.6 450.028 224.6C463.028 217.4 473.128 207.6 480.328 195.2ZM446.886 179.368L446.89 179.359C451.043 171.845 453.128 163.031 453.128 152.9C453.128 142.568 451.042 133.757 446.893 126.447L446.889 126.44L446.886 126.433C442.929 118.915 437.397 113.188 430.285 109.237C423.166 105.282 415.151 103.3 406.228 103.3C397.104 103.3 388.99 105.283 381.873 109.236C374.961 113.187 369.424 118.917 365.266 126.442L365.263 126.447C361.114 133.757 359.028 142.568 359.028 152.9C359.028 163.031 361.113 171.845 365.266 179.359C369.425 186.884 374.961 192.614 381.874 196.565C388.992 200.519 397.006 202.5 405.928 202.5C415.053 202.5 423.168 200.517 430.285 196.563C437.397 192.613 442.929 186.885 446.886 179.368ZM381.628 108.8C388.828 104.8 397.028 102.8 406.228 102.8C415.228 102.8 423.328 104.8 430.528 108.8C437.728 112.8 443.328 118.6 447.328 126.2C451.528 133.6 453.628 142.5 453.628 152.9C453.628 163.1 451.528 172 447.328 179.6C443.328 187.2 437.728 193 430.528 197C423.328 201 415.128 203 405.928 203C396.928 203 388.828 201 381.628 197C374.628 193 369.028 187.2 364.828 179.6C360.628 172 358.528 163.1 358.528 152.9C358.528 142.5 360.628 133.6 364.828 126.2C369.028 118.6 374.628 112.8 381.628 108.8ZM486.008 256.399C491.739 260.4 498.899 262.4 507.487 262.4C514.287 262.4 519.588 260.2 523.388 255.8C527.188 251.6 529.088 245.3 529.088 236.9V72.8004H566.588V236C566.588 253.6 561.688 267.5 551.888 277.7C542.287 288.1 528.588 293.3 510.787 293.3C503.787 293.3 497.188 292.5 490.987 290.9C484.587 289.5 479.188 287.2 474.788 284L485.588 256.1C485.727 256.201 485.867 256.301 486.008 256.399ZM490.872 291.387C484.422 289.975 478.958 287.651 474.493 284.405L474.182 284.179L485.355 255.315L485.881 255.695C491.578 259.821 498.768 261.9 507.487 261.9C514.169 261.9 519.321 259.745 523.009 255.474L523.017 255.465C526.701 251.393 528.588 245.235 528.588 236.9V72.3004H567.088V236C567.088 253.694 562.159 267.729 552.251 278.043C542.534 288.569 528.687 293.8 510.787 293.8C503.753 293.8 497.114 292.997 490.872 291.387ZM529.942 40.1617L529.934 40.154C525.441 35.6606 523.188 30.2335 523.188 23.9004C523.188 17.3717 525.438 11.9384 529.942 7.6387C534.645 3.14071 540.573 0.900391 547.688 0.900391C554.791 0.900391 560.618 3.03385 565.124 7.33074C569.83 11.4264 572.188 16.6624 572.188 23.0004C572.188 29.7239 569.941 35.4492 565.449 40.146L565.441 40.154C560.932 44.6625 554.998 46.9004 547.688 46.9004C540.573 46.9004 534.645 44.6599 529.942 40.1617ZM564.787 7.70039C560.388 3.50039 554.688 1.40039 547.688 1.40039C540.688 1.40039 534.888 3.60039 530.287 8.00038C525.888 12.2004 523.688 17.5004 523.688 23.9004C523.688 30.1004 525.888 35.4004 530.287 39.8004C534.888 44.2004 540.688 46.4004 547.688 46.4004C554.888 46.4004 560.688 44.2004 565.088 39.8004C569.487 35.2004 571.688 29.6004 571.688 23.0004C571.688 16.8004 569.388 11.7004 564.787 7.70039ZM644.033 225.044L644.025 225.039C630.75 217.798 620.382 207.937 612.935 195.457L612.932 195.451C605.683 182.968 602.064 168.779 602.064 152.9C602.064 136.825 605.581 122.637 612.63 110.352L612.632 110.349C619.876 97.8729 629.74 88.1091 642.218 81.065L642.221 81.0633C654.903 74.0176 669.289 70.5004 685.364 70.5004C701.039 70.5004 715.025 73.9175 727.307 80.7636C739.589 87.6093 749.255 97.2761 756.299 109.755C763.349 122.242 766.864 136.93 766.864 153.8C766.864 155.414 766.764 157.223 766.564 159.225C766.563 161.233 766.462 163.143 766.261 164.956L766.212 165.4H640.672C641.711 170.655 643.552 175.502 646.194 179.945C650.543 187.259 656.67 192.894 664.588 196.853C672.508 200.813 681.629 202.8 691.964 202.8C700.912 202.8 708.949 201.409 716.083 198.634C723.208 195.863 729.547 191.508 735.099 185.559L735.477 185.154L756.225 208.998L755.944 209.326C748.689 217.79 739.523 224.334 728.457 228.962L728.453 228.963C717.582 233.392 705.116 235.6 691.064 235.6C673.198 235.6 657.516 232.087 644.033 225.044ZM640.162 165.4C641.208 170.745 643.075 175.678 645.764 180.2C650.164 187.6 656.364 193.3 664.364 197.3C672.364 201.3 681.564 203.3 691.964 203.3C700.964 203.3 709.064 201.9 716.264 199.1C723.317 196.358 729.602 192.08 735.12 186.266C735.235 186.145 735.35 186.023 735.464 185.9L755.564 209C748.364 217.4 739.264 223.9 728.264 228.5C717.464 232.9 705.064 235.1 691.064 235.1C673.264 235.1 657.664 231.6 644.264 224.6C631.064 217.4 620.764 207.6 613.364 195.2C606.164 182.8 602.564 168.7 602.564 152.9C602.564 136.9 606.064 122.8 613.064 110.6C620.264 98.2004 630.064 88.5004 642.464 81.5004C655.064 74.5004 669.364 71.0004 685.364 71.0004C700.964 71.0004 714.864 74.4004 727.064 81.2004C739.264 88.0004 748.864 97.6004 755.864 110C762.864 122.4 766.364 137 766.364 153.8C766.364 155.4 766.264 157.2 766.064 159.2C766.064 161.2 765.964 163.1 765.764 164.9H640.067C640.098 165.067 640.13 165.234 640.162 165.4ZM730.899 140C730.879 139.833 730.858 139.667 730.837 139.5C730.072 133.647 728.315 128.314 725.564 123.5C721.564 116.5 716.064 111 709.064 107C702.264 103 694.364 101 685.364 101C676.164 101 668.064 103 661.064 107C654.264 111 648.864 116.6 644.864 123.8C642.336 128.458 640.648 133.691 639.802 139.5C639.778 139.667 639.755 139.833 639.732 140H730.899ZM640.308 139.5H730.332C729.571 133.731 727.835 128.482 725.13 123.748C721.174 116.826 715.738 111.39 708.816 107.435L708.811 107.431C702.098 103.483 694.288 101.5 685.364 101.5C676.24 101.5 668.229 103.483 661.315 107.433C654.597 111.385 649.259 116.918 645.301 124.043C642.816 128.623 641.149 133.774 640.308 139.5ZM830.651 225.042L830.643 225.038C817.568 217.796 807.302 207.935 799.856 195.457C792.405 182.972 788.685 168.782 788.685 152.9C788.685 136.822 792.404 122.631 799.856 110.344C807.303 97.8648 817.57 88.102 830.648 81.0602L830.651 81.0587C843.932 74.0159 859.014 70.5004 875.885 70.5004C891.553 70.5004 905.336 73.7145 917.22 80.1589C929.312 86.4076 938.485 95.6835 944.731 107.974L944.945 108.395L915.32 125.675L915.062 125.267C910.303 117.732 904.466 112.199 897.556 108.645L897.551 108.642C890.826 105.082 883.507 103.3 875.585 103.3C866.46 103.3 858.243 105.283 850.923 109.24C843.61 113.193 837.878 118.923 833.723 126.442L833.72 126.447C829.571 133.757 827.485 142.568 827.485 152.9C827.485 163.232 829.571 172.145 833.722 179.658C837.877 186.975 843.608 192.606 850.923 196.561C858.243 200.517 866.46 202.5 875.585 202.5C883.507 202.5 890.826 200.719 897.551 197.158L897.556 197.156C904.466 193.602 910.303 188.069 915.062 180.533L915.32 180.125L944.947 197.408L944.729 197.83C938.483 209.919 929.312 219.291 917.226 225.939L917.224 225.94C905.339 232.386 891.555 235.6 875.885 235.6C859.014 235.6 843.932 232.085 830.651 225.042ZM833.285 179.9C829.085 172.3 826.985 163.3 826.985 152.9C826.985 142.5 829.085 133.6 833.285 126.2C837.485 118.6 843.285 112.8 850.685 108.8C858.085 104.8 866.385 102.8 875.585 102.8C883.585 102.8 890.985 104.6 897.785 108.2C904.785 111.8 910.685 117.4 915.485 125L944.285 108.2C938.085 96.0004 928.985 86.8004 916.985 80.6004C905.185 74.2004 891.485 71.0004 875.885 71.0004C859.085 71.0004 844.085 74.5004 830.885 81.5004C817.885 88.5004 807.685 98.2004 800.285 110.6C792.885 122.8 789.185 136.9 789.185 152.9C789.185 168.7 792.885 182.8 800.285 195.2C807.685 207.6 817.885 217.4 830.885 224.6C844.085 231.6 859.085 235.1 875.885 235.1C891.485 235.1 905.185 231.9 916.985 225.5C928.985 218.9 938.085 209.6 944.285 197.6L915.485 180.8C910.685 188.4 904.785 194 897.785 197.6C890.985 201.2 883.585 203 875.585 203C866.385 203 858.085 201 850.685 197C843.285 193 837.485 187.3 833.285 179.9ZM997.91 221.965L997.906 221.961C988.178 212.638 983.352 198.989 983.352 181.1V104.5H956.952V73.5004H983.352V36.9004H1021.85V73.5004H1064.75V104.5H1021.85V180.2C1021.85 187.716 1023.73 193.479 1027.42 197.56C1031.3 201.638 1036.66 203.7 1043.55 203.7C1051.86 203.7 1058.75 201.526 1064.24 197.207L1064.77 196.792L1075.65 224.457L1075.37 224.687C1070.91 228.338 1065.44 231.066 1058.99 232.882C1052.54 234.694 1045.9 235.6 1039.05 235.6C1021.37 235.6 1007.63 231.078 997.91 221.965ZM1027.05 197.9C1023.25 193.7 1021.35 187.8 1021.35 180.2V104H1064.25V74.0004H1021.35V37.4004H983.852V74.0004H957.452V104H983.852V181.1C983.852 198.9 988.652 212.4 998.252 221.6C1007.85 230.6 1021.45 235.1 1039.05 235.1C1045.85 235.1 1052.45 234.2 1058.85 232.4C1065.25 230.6 1070.65 227.9 1075.05 224.3L1064.55 197.6C1064.42 197.708 1064.28 197.814 1064.14 197.918C1058.61 202.106 1051.75 204.2 1043.55 204.2C1036.55 204.2 1031.05 202.1 1027.05 197.9ZM1116.57 230.483L1116.56 230.48C1104.33 226.871 1094.57 222.552 1087.32 217.511L1086.96 217.263L1101.8 187.881L1102.27 188.179C1109.42 192.749 1117.98 196.532 1127.94 199.521C1137.9 202.508 1147.85 204 1157.8 204C1169.58 204 1177.96 202.399 1183.04 199.275L1183.05 199.27C1188.32 196.143 1190.9 191.992 1190.9 186.8C1190.9 182.565 1189.18 179.432 1185.74 177.327L1185.73 177.322L1185.72 177.316C1182.19 174.963 1177.56 173.182 1171.8 171.99C1166.01 170.793 1159.52 169.694 1152.33 168.696L1152.33 168.695C1145.32 167.693 1138.2 166.391 1130.99 164.788L1130.98 164.787L1130.98 164.785C1123.94 162.975 1117.5 160.46 1111.66 157.238L1111.65 157.232C1105.78 153.792 1101.02 149.238 1097.38 143.571C1093.71 137.865 1091.9 130.361 1091.9 121.1C1091.9 110.801 1094.83 101.892 1100.7 94.397C1106.57 86.7132 1114.75 80.8631 1125.22 76.8355C1135.89 72.6071 1148.45 70.5004 1162.9 70.5004C1173.74 70.5004 1184.67 71.7046 1195.71 74.1119C1206.74 76.5201 1215.9 79.9368 1223.16 84.3737L1223.56 84.6142L1208.7 114.008L1208.24 113.728C1200.69 109.154 1193.04 106.077 1185.3 104.49L1185.29 104.489L1185.29 104.487C1177.72 102.696 1170.16 101.8 1162.6 101.8C1151.24 101.8 1142.85 103.498 1137.36 106.825C1132.07 110.157 1129.5 114.314 1129.5 119.3C1129.5 123.955 1131.23 127.388 1134.68 129.684C1138.21 132.042 1142.86 133.923 1148.62 135.314C1154.4 136.71 1160.78 137.906 1167.76 138.904C1174.98 139.707 1182.11 141.011 1189.13 142.816C1196.16 144.625 1202.6 147.138 1208.43 150.358C1214.51 153.397 1219.37 157.757 1223.02 163.43C1226.69 169.134 1228.5 176.537 1228.5 185.6C1228.5 195.708 1225.47 204.519 1219.39 212.012C1213.52 219.496 1205.14 225.342 1194.28 229.566L1194.27 229.569C1183.4 233.595 1170.44 235.6 1155.4 235.6C1141.96 235.6 1129.01 233.895 1116.57 230.483ZM1219 211.7C1225 204.3 1228 195.6 1228 185.6C1228 176.6 1226.2 169.3 1222.6 163.7C1219 158.1 1214.2 153.8 1208.2 150.8C1202.4 147.6 1196 145.1 1189 143.3C1182 141.5 1174.9 140.2 1167.7 139.4C1160.7 138.4 1154.3 137.2 1148.5 135.8C1142.7 134.4 1138 132.5 1134.4 130.1C1130.8 127.7 1129 124.1 1129 119.3C1129 114.1 1131.7 109.8 1137.1 106.4C1142.7 103 1151.2 101.3 1162.6 101.3C1170.2 101.3 1177.8 102.2 1185.4 104C1193.05 105.57 1200.61 108.584 1208.07 113.042C1208.21 113.128 1208.36 113.214 1208.5 113.3L1222.9 84.8004C1215.7 80.4004 1206.6 77.0004 1195.6 74.6004C1184.6 72.2004 1173.7 71.0004 1162.9 71.0004C1148.5 71.0004 1136 73.1004 1125.4 77.3004C1115 81.3004 1106.9 87.1004 1101.1 94.7004C1095.3 102.1 1092.4 110.9 1092.4 121.1C1092.4 130.3 1094.2 137.7 1097.8 143.3C1101.4 148.9 1106.1 153.4 1111.9 156.8C1117.7 160 1124.1 162.5 1131.1 164.3C1138.3 165.9 1145.4 167.2 1152.4 168.2C1159.6 169.2 1166.1 170.3 1171.9 171.5C1177.7 172.7 1182.4 174.5 1186 176.9C1189.6 179.1 1191.4 182.4 1191.4 186.8C1191.4 192.2 1188.7 196.5 1183.3 199.7C1178.1 202.9 1169.6 204.5 1157.8 204.5C1147.8 204.5 1137.8 203 1127.8 200C1118 197.059 1109.54 193.349 1102.42 188.87C1102.28 188.78 1102.14 188.69 1102 188.6L1087.6 217.1C1094.8 222.1 1104.5 226.4 1116.7 230C1129.1 233.4 1142 235.1 1155.4 235.1C1170.4 235.1 1183.3 233.1 1194.1 229.1C1204.9 224.9 1213.2 219.1 1219 211.7Z" fill="#E33A23"/>
</svg>
