<svg width="821" height="214" viewBox="0 0 821 214" fill="none" xmlns="http://www.w3.org/2000/svg">
<path fill-rule="evenodd" clip-rule="evenodd" d="M0.699951 211.5V0.5H33.5376L148.6 141.772V0.5H188.3V211.5H155.462L40.4 70.2275V211.5H0.699951ZM39.9 68.8219L155.7 211H187.8V1H149.1V143.178L33.3 1H1.19995V211H39.9V68.8219ZM268.74 203.043L268.732 203.039C255.456 195.798 245.089 185.936 237.642 173.456L237.639 173.451C230.39 160.967 226.771 146.779 226.771 130.9C226.771 114.825 230.288 100.637 237.337 88.3512L237.339 88.3489C244.583 75.8725 254.447 66.1087 266.925 59.0646L266.928 59.0629C279.61 52.0173 293.996 48.5 310.071 48.5C325.746 48.5 339.732 51.9171 352.014 58.7633C364.296 65.6089 373.962 75.2758 381.006 87.7542C388.056 100.242 391.571 114.929 391.571 131.8C391.571 133.414 391.471 135.222 391.271 137.225C391.27 139.232 391.169 141.143 390.968 142.955L390.919 143.4H265.379C266.417 148.655 268.259 153.502 270.901 157.944C275.25 165.259 281.377 170.894 289.295 174.853C297.215 178.813 306.336 180.8 316.671 180.8C325.619 180.8 333.656 179.408 340.79 176.634C347.915 173.863 354.254 169.507 359.806 163.559L360.184 163.153L380.932 186.998L380.651 187.325C373.396 195.789 364.23 202.334 353.164 206.961L353.16 206.963C342.289 211.392 329.823 213.6 315.771 213.6C297.905 213.6 282.223 210.087 268.74 203.043ZM264.869 143.4C265.915 148.744 267.782 153.678 270.471 158.2C274.871 165.6 281.071 171.3 289.071 175.3C297.071 179.3 306.271 181.3 316.671 181.3C325.671 181.3 333.771 179.9 340.971 177.1C348.024 174.357 354.309 170.079 359.827 164.266C359.942 164.145 360.057 164.023 360.171 163.9L380.271 187C373.071 195.4 363.971 201.9 352.971 206.5C342.171 210.9 329.771 213.1 315.771 213.1C297.971 213.1 282.371 209.6 268.971 202.6C255.771 195.4 245.471 185.6 238.071 173.2C230.871 160.8 227.271 146.7 227.271 130.9C227.271 114.9 230.771 100.8 237.771 88.6C244.971 76.2 254.771 66.5 267.171 59.5C279.771 52.5 294.071 49 310.071 49C325.671 49 339.571 52.4 351.771 59.2C363.971 66 373.571 75.6 380.571 88C387.571 100.4 391.071 115 391.071 131.8C391.071 133.4 390.971 135.2 390.771 137.2C390.771 139.2 390.671 141.1 390.471 142.9H264.774C264.805 143.067 264.836 143.234 264.869 143.4ZM355.606 118C355.586 117.833 355.565 117.666 355.544 117.5C354.779 111.647 353.021 106.313 350.271 101.5C346.271 94.5 340.771 89 333.771 85C326.971 81 319.071 79 310.071 79C300.871 79 292.771 81 285.771 85C278.971 89 273.571 94.6 269.571 101.8C267.043 106.458 265.355 111.691 264.509 117.5C264.485 117.666 264.461 117.833 264.439 118H355.606ZM265.015 117.5H355.039C354.278 111.731 352.542 106.482 349.837 101.748C345.881 94.8256 340.445 89.3898 333.523 85.4341L333.518 85.431C326.805 81.4822 318.995 79.5 310.071 79.5C300.947 79.5 292.936 81.4825 286.022 85.4323C279.304 89.3845 273.968 94.9168 270.009 102.04C267.523 106.621 265.856 111.772 265.015 117.5ZM459.213 211.5L400.046 50.3H436.515L478.369 167.64L522.216 50.3H554.413L597.163 168.051L640.413 50.3H674.78L615.311 211.5H578.616L537.655 102.009L495.907 211.5H459.213ZM537.66 100.594L578.962 211H614.962L674.062 50.8H640.762L597.16 169.508L554.062 50.8H522.562L478.358 169.098L436.162 50.8H400.762L459.562 211H495.562L537.66 100.594ZM708.463 208.482L708.454 208.48C696.223 204.871 686.469 200.552 679.21 195.511L678.853 195.263L693.698 165.881L694.164 166.179C701.318 170.749 709.874 174.532 719.839 177.521C729.794 180.508 739.746 182 749.695 182C761.475 182 769.857 180.398 774.933 177.274L774.94 177.27C780.218 174.143 782.795 169.992 782.795 164.8C782.795 160.565 781.078 157.431 777.635 155.327L777.626 155.322L777.618 155.316C774.087 152.962 769.453 151.181 763.694 149.99C757.907 148.792 751.418 147.694 744.227 146.695L744.225 146.695C737.211 145.693 730.099 144.391 722.887 142.788L722.879 142.786L722.871 142.784C715.834 140.975 709.394 138.46 703.554 135.238L703.542 135.232C697.675 131.792 692.918 127.237 689.275 121.57C685.607 115.864 683.795 108.361 683.795 99.1C683.795 88.8 686.726 79.8902 692.599 72.3953C698.463 64.7116 706.643 58.8617 717.113 54.8343C727.785 50.6064 740.349 48.5 754.795 48.5C765.633 48.5 776.568 49.7042 787.602 52.1115C798.639 54.5197 807.795 57.9364 815.056 62.3734L815.45 62.6139L800.598 92.0072L800.136 91.7278C792.58 87.1539 784.933 84.0771 777.195 82.4898L777.187 82.4883L777.18 82.4866C769.617 80.6953 762.055 79.8 754.495 79.8C743.129 79.8 734.74 81.4978 729.257 84.8259C723.968 88.1579 721.395 92.3139 721.395 97.3C721.395 101.954 723.129 105.388 726.573 107.684C730.109 110.042 734.75 111.923 740.513 113.314C746.293 114.709 752.674 115.906 759.658 116.904C766.879 117.707 773.999 119.011 781.02 120.816C788.053 122.624 794.49 125.138 800.328 128.357C806.404 131.397 811.269 135.756 814.916 141.43C818.583 147.134 820.395 154.537 820.395 163.6C820.395 173.707 817.36 182.519 811.286 190.012C805.419 197.496 797.039 203.342 786.176 207.566L786.169 207.569C775.299 211.595 762.338 213.6 747.295 213.6C733.852 213.6 720.908 211.895 708.463 208.482ZM800.095 128.8C794.295 125.6 787.895 123.1 780.895 121.3C773.895 119.5 766.795 118.2 759.595 117.4C752.595 116.4 746.195 115.2 740.395 113.8C734.595 112.4 729.895 110.5 726.295 108.1C722.695 105.7 720.895 102.1 720.895 97.3C720.895 92.1 723.595 87.8 728.995 84.4C734.595 81 743.095 79.3 754.495 79.3C762.095 79.3 769.695 80.2 777.295 82C784.948 83.5699 792.505 86.5837 799.966 91.0416C800.109 91.1272 800.252 91.2133 800.395 91.3L814.795 62.8C807.595 58.4 798.495 55 787.495 52.6C776.495 50.2 765.595 49 754.795 49C740.395 49 727.895 51.1 717.295 55.3C706.895 59.3 698.795 65.1 692.995 72.7C687.195 80.1 684.295 88.9 684.295 99.1C684.295 108.3 686.095 115.7 689.695 121.3C693.295 126.9 697.995 131.4 703.795 134.8C709.595 138 715.995 140.5 722.995 142.3C730.195 143.9 737.295 145.2 744.295 146.2C751.495 147.2 757.995 148.3 763.795 149.5C769.595 150.7 774.295 152.5 777.895 154.9C781.495 157.1 783.295 160.4 783.295 164.8C783.295 170.2 780.595 174.5 775.195 177.7C769.995 180.9 761.495 182.5 749.695 182.5C739.695 182.5 729.695 181 719.695 178C709.891 175.059 701.432 171.348 694.32 166.869C694.178 166.78 694.036 166.69 693.895 166.6L679.495 195.1C686.695 200.1 696.395 204.4 708.595 208C720.995 211.4 733.895 213.1 747.295 213.1C762.295 213.1 775.195 211.1 785.995 207.1C796.795 202.9 805.095 197.1 810.895 189.7C816.895 182.3 819.895 173.6 819.895 163.6C819.895 154.6 818.095 147.3 814.495 141.7C810.895 136.1 806.095 131.8 800.095 128.8Z" fill="white"/>
</svg>
