<svg width="968" height="236" viewBox="0 0 968 236" fill="none" xmlns="http://www.w3.org/2000/svg">
<path fill-rule="evenodd" clip-rule="evenodd" d="M0.700012 233.5V22.5004H87.6C106.251 22.5004 122.225 25.5083 135.505 31.5444C148.984 37.5798 159.363 46.2403 166.621 57.53C173.88 68.8227 177.5 82.2199 177.5 97.7004C177.5 113.181 173.88 126.578 166.621 137.871L166.618 137.874C159.36 148.963 148.981 157.522 135.504 163.557L135.501 163.558C134.75 163.888 133.99 164.209 133.221 164.521L181.561 233.5H138.339L95.5633 172.116C92.9655 172.239 90.3111 172.3 87.6 172.3H40.7V233.5H0.700012ZM40.2 171.8H87.6C90.1943 171.8 92.7361 171.744 95.2254 171.631C95.4224 171.622 95.6191 171.613 95.8154 171.603L138.6 233H180.6L132.449 164.291C132.609 164.228 132.768 164.164 132.926 164.1C133.727 163.777 134.518 163.444 135.3 163.1C148.7 157.1 159 148.6 166.2 137.6C173.4 126.4 177 113.1 177 97.7004C177 82.3004 173.4 69.0004 166.2 57.8004C159 46.6004 148.7 38.0004 135.3 32.0004C122.1 26.0004 106.2 23.0004 87.6 23.0004H1.20001V233H40.2V171.8ZM85.8 139.7C103 139.7 115.9 136 124.5 128.6C133.3 121.2 137.7 110.9 137.7 97.7004C137.7 84.3004 133.3 74.0004 124.5 66.8004C115.9 59.6004 103 56.0004 85.8 56.0004H40.2V139.7H85.8ZM40.7 139.2H85.8C102.94 139.2 115.701 135.512 124.174 128.221L124.178 128.218C132.848 120.927 137.2 110.777 137.2 97.7004C137.2 84.4206 132.846 74.275 124.183 67.1874L124.179 67.1838C115.706 60.0902 102.942 56.5004 85.8 56.5004H40.7V139.2ZM245.302 225.044L245.294 225.039C232.019 217.798 221.652 207.937 214.204 195.457L214.201 195.451C206.953 182.968 203.334 168.779 203.334 152.9C203.334 136.825 206.851 122.637 213.9 110.352L213.901 110.349C221.146 97.8729 231.01 88.1091 243.488 81.065L243.491 81.0633C256.173 74.0176 270.558 70.5004 286.634 70.5004C302.309 70.5004 316.294 73.9175 328.577 80.7636C340.859 87.6093 350.525 97.2761 357.569 109.755C364.618 122.242 368.134 136.93 368.134 153.8C368.134 155.414 368.033 157.223 367.834 159.225C367.833 161.233 367.732 163.143 367.531 164.956L367.481 165.4H241.941C242.98 170.655 244.822 175.502 247.463 179.945C251.812 187.259 257.939 192.894 265.857 196.853C273.777 200.813 282.899 202.8 293.234 202.8C302.182 202.8 310.219 201.409 317.352 198.634C324.478 195.863 330.816 191.508 336.368 185.559L336.747 185.154L357.494 208.998L357.213 209.326C349.959 217.79 340.793 224.334 329.727 228.962L329.722 228.963C318.852 233.392 306.386 235.6 292.334 235.6C274.467 235.6 258.785 232.087 245.302 225.044ZM241.432 165.4C242.477 170.745 244.345 175.678 247.034 180.2C251.434 187.6 257.634 193.3 265.634 197.3C273.634 201.3 282.834 203.3 293.234 203.3C302.234 203.3 310.334 201.9 317.534 199.1C324.586 196.358 330.872 192.08 336.389 186.266C336.504 186.145 336.619 186.023 336.734 185.9L356.834 209C349.634 217.4 340.534 223.9 329.534 228.5C318.734 232.9 306.334 235.1 292.334 235.1C274.534 235.1 258.934 231.6 245.534 224.6C232.334 217.4 222.034 207.6 214.634 195.2C207.434 182.8 203.834 168.7 203.834 152.9C203.834 136.9 207.334 122.8 214.334 110.6C221.534 98.2004 231.334 88.5004 243.734 81.5004C256.334 74.5004 270.634 71.0004 286.634 71.0004C302.234 71.0004 316.134 74.4004 328.334 81.2004C340.534 88.0004 350.134 97.6004 357.134 110C364.134 122.4 367.634 137 367.634 153.8C367.634 155.4 367.534 157.2 367.334 159.2C367.334 161.2 367.234 163.1 367.034 164.9H241.336C241.367 165.067 241.399 165.234 241.432 165.4ZM332.169 140C332.149 139.833 332.128 139.667 332.106 139.5C331.342 133.647 329.584 128.314 326.834 123.5C322.834 116.5 317.334 111 310.334 107C303.534 103 295.634 101 286.634 101C277.434 101 269.334 103 262.334 107C255.534 111 250.134 116.6 246.134 123.8C243.605 128.458 241.918 133.691 241.072 139.5C241.048 139.667 241.024 139.833 241.001 140H332.169ZM241.577 139.5H331.602C330.84 133.731 329.105 128.482 326.399 123.748C322.444 116.826 317.008 111.39 310.086 107.435L310.08 107.431C303.367 103.483 295.557 101.5 286.634 101.5C277.51 101.5 269.498 103.483 262.585 107.433C255.867 111.385 250.53 116.917 246.572 124.041C244.086 128.621 242.419 133.773 241.577 139.5ZM442.995 233.5L373.867 72.3004H413.958L463.301 190.272L514.397 72.3004H551.483L482.355 233.5H442.995ZM463.293 191.549L413.625 72.8004H374.625L443.325 233H482.025L550.725 72.8004H514.725L463.293 191.549ZM573.662 233.5V72.3004H612.162V233.5H573.662ZM575.317 40.1617L575.309 40.154C570.816 35.6606 568.562 30.2335 568.562 23.9004C568.562 17.3717 570.813 11.9384 575.317 7.6387C580.02 3.14071 585.948 0.900391 593.062 0.900391C600.166 0.900391 605.993 3.03385 610.499 7.33074C615.205 11.4264 617.562 16.6624 617.562 23.0004C617.562 29.7239 615.316 35.4492 610.824 40.146L610.816 40.154C606.307 44.6625 600.373 46.9004 593.062 46.9004C585.948 46.9004 580.02 44.6599 575.317 40.1617ZM610.162 7.70039C605.763 3.50039 600.062 1.40039 593.062 1.40039C586.062 1.40039 580.263 3.60039 575.662 8.00038C571.263 12.2004 569.062 17.5004 569.062 23.9004C569.062 30.1004 571.263 35.4004 575.662 39.8004C580.263 44.2004 586.062 46.4004 593.062 46.4004C600.263 46.4004 606.062 44.2004 610.463 39.8004C614.862 35.2004 617.062 29.6004 617.062 23.0004C617.062 16.8004 614.763 11.7004 610.162 7.70039ZM689.15 225.044L689.142 225.039C675.867 217.798 665.5 207.937 658.052 195.457L658.049 195.451C650.8 182.968 647.181 168.779 647.181 152.9C647.181 136.825 650.698 122.637 657.748 110.352L657.749 110.349C664.993 97.8729 674.857 88.1091 687.335 81.065L687.338 81.0633C700.021 74.0176 714.406 70.5004 730.481 70.5004C746.156 70.5004 760.142 73.9175 772.425 80.7636C784.707 87.6093 794.372 97.2761 801.417 109.755C808.466 122.242 811.981 136.93 811.981 153.8C811.981 155.414 811.881 157.223 811.681 159.225C811.68 161.233 811.58 163.143 811.378 164.956L811.329 165.4H685.789C686.828 170.655 688.669 175.502 691.311 179.945C695.66 187.259 701.787 192.894 709.705 196.853C717.625 200.813 726.746 202.8 737.081 202.8C746.029 202.8 754.067 201.409 761.2 198.634C768.326 195.863 774.664 191.508 780.216 185.559L780.594 185.154L801.342 208.998L801.061 209.326C793.806 217.79 784.64 224.334 773.574 228.962L773.57 228.963C762.699 233.392 750.233 235.6 736.181 235.6C718.315 235.6 702.633 232.087 689.15 225.044ZM685.279 165.4C686.325 170.745 688.192 175.678 690.881 180.2C695.281 187.6 701.481 193.3 709.481 197.3C717.481 201.3 726.681 203.3 737.081 203.3C746.081 203.3 754.181 201.9 761.381 199.1C768.434 196.358 774.719 192.08 780.237 186.266C780.352 186.145 780.467 186.023 780.581 185.9L800.681 209C793.481 217.4 784.381 223.9 773.381 228.5C762.581 232.9 750.181 235.1 736.181 235.1C718.381 235.1 702.781 231.6 689.381 224.6C676.181 217.4 665.881 207.6 658.481 195.2C651.281 182.8 647.681 168.7 647.681 152.9C647.681 136.9 651.181 122.8 658.181 110.6C665.381 98.2004 675.181 88.5004 687.581 81.5004C700.181 74.5004 714.481 71.0004 730.481 71.0004C746.081 71.0004 759.981 74.4004 772.181 81.2004C784.381 88.0004 793.981 97.6004 800.981 110C807.981 122.4 811.481 137 811.481 153.8C811.481 155.4 811.381 157.2 811.181 159.2C811.181 161.2 811.081 163.1 810.881 164.9H685.184C685.215 165.067 685.247 165.234 685.279 165.4ZM776.017 140C775.996 139.833 775.976 139.667 775.954 139.5C775.189 133.647 773.432 128.314 770.681 123.5C766.681 116.5 761.181 111 754.181 107C747.381 103 739.481 101 730.481 101C721.281 101 713.181 103 706.181 107C699.381 111 693.981 116.6 689.981 123.8C687.453 128.458 685.766 133.691 684.919 139.5C684.895 139.667 684.872 139.833 684.849 140H776.017ZM685.425 139.5H775.45C774.688 133.731 772.952 128.482 770.247 123.748C766.291 116.826 760.856 111.39 753.933 107.435L753.928 107.431C747.215 103.483 739.405 101.5 730.481 101.5C721.357 101.5 713.346 103.483 706.432 107.433C699.714 111.385 694.377 116.918 690.418 124.043C687.933 128.623 686.266 133.774 685.425 139.5ZM879.624 233.5L820.457 72.3004H856.925L898.779 189.64L942.626 72.3004H974.823L1017.57 190.051L1060.82 72.3004H1095.19L1035.72 233.5H999.026L958.065 124.01L916.317 233.5H879.624ZM958.07 122.595L999.373 233H1035.37L1094.47 72.8004H1061.17L1017.57 191.509L974.473 72.8004H942.973L898.768 191.098L856.573 72.8004H821.173L879.973 233H915.973L958.07 122.595ZM1128.87 230.483L1128.86 230.48C1116.63 226.871 1106.88 222.552 1099.62 217.511L1099.26 217.263L1114.11 187.881L1114.57 188.179C1121.73 192.749 1130.28 196.532 1140.25 199.521C1150.2 202.508 1160.16 204 1170.11 204C1181.88 204 1190.27 202.399 1195.34 199.275L1195.35 199.27C1200.63 196.143 1203.21 191.992 1203.21 186.8C1203.21 182.565 1201.49 179.432 1198.04 177.327L1198.04 177.322L1198.03 177.316C1194.5 174.963 1189.86 173.182 1184.1 171.99C1178.32 170.793 1171.83 169.694 1164.64 168.696L1164.63 168.695C1157.62 167.693 1150.51 166.391 1143.3 164.788L1143.29 164.787L1143.28 164.785C1136.24 162.975 1129.8 160.46 1123.96 157.238L1123.95 157.232C1118.09 153.792 1113.33 149.238 1109.68 143.571C1106.02 137.865 1104.21 130.361 1104.21 121.1C1104.21 110.801 1107.14 101.892 1113.01 94.397C1118.87 86.7132 1127.05 80.8631 1137.52 76.8355C1148.19 72.6071 1160.76 70.5004 1175.21 70.5004C1186.04 70.5004 1196.98 71.7046 1208.01 74.1119C1219.05 76.5201 1228.21 79.9368 1235.47 84.3737L1235.86 84.6142L1221.01 114.008L1220.55 113.728C1212.99 109.154 1205.34 106.077 1197.61 104.49L1197.6 104.489L1197.59 104.487C1190.03 102.696 1182.47 101.8 1174.91 101.8C1163.54 101.8 1155.15 103.498 1149.67 106.825C1144.38 110.157 1141.81 114.314 1141.81 119.3C1141.81 123.955 1143.54 127.388 1146.98 129.684C1150.52 132.042 1155.16 133.923 1160.92 135.314C1166.7 136.71 1173.08 137.906 1180.07 138.904C1187.29 139.707 1194.41 141.011 1201.43 142.816C1208.46 144.625 1214.9 147.138 1220.74 150.358C1226.81 153.397 1231.68 157.757 1235.33 163.43C1238.99 169.134 1240.81 176.537 1240.81 185.6C1240.81 195.708 1237.77 204.519 1231.7 212.012C1225.83 219.496 1217.45 225.342 1206.59 229.566L1206.58 229.569C1195.71 233.595 1182.75 235.6 1167.71 235.6C1154.26 235.6 1141.32 233.895 1128.87 230.483ZM1231.31 211.7C1237.31 204.3 1240.31 195.6 1240.31 185.6C1240.31 176.6 1238.51 169.3 1234.91 163.7C1231.31 158.1 1226.51 153.8 1220.51 150.8C1214.71 147.6 1208.31 145.1 1201.31 143.3C1194.31 141.5 1187.21 140.2 1180.01 139.4C1173.01 138.4 1166.61 137.2 1160.81 135.8C1155.01 134.4 1150.31 132.5 1146.71 130.1C1143.11 127.7 1141.31 124.1 1141.31 119.3C1141.31 114.1 1144.01 109.8 1149.41 106.4C1155.01 103 1163.51 101.3 1174.91 101.3C1182.51 101.3 1190.11 102.2 1197.71 104C1205.36 105.57 1212.92 108.584 1220.38 113.042C1220.52 113.128 1220.66 113.214 1220.81 113.3L1235.21 84.8004C1228.01 80.4004 1218.91 77.0004 1207.91 74.6004C1196.91 72.2004 1186.01 71.0004 1175.21 71.0004C1160.81 71.0004 1148.31 73.1004 1137.71 77.3004C1127.31 81.3004 1119.21 87.1004 1113.41 94.7004C1107.61 102.1 1104.71 110.9 1104.71 121.1C1104.71 130.3 1106.51 137.7 1110.11 143.3C1113.71 148.9 1118.41 153.4 1124.21 156.8C1130.01 160 1136.41 162.5 1143.41 164.3C1150.61 165.9 1157.71 167.2 1164.71 168.2C1171.91 169.2 1178.41 170.3 1184.21 171.5C1190.01 172.7 1194.71 174.5 1198.31 176.9C1201.91 179.1 1203.71 182.4 1203.71 186.8C1203.71 192.2 1201.01 196.5 1195.61 199.7C1190.41 202.9 1181.91 204.5 1170.11 204.5C1160.11 204.5 1150.11 203 1140.11 200C1130.3 197.059 1121.84 193.349 1114.73 188.87C1114.59 188.78 1114.45 188.69 1114.31 188.6L1099.91 217.1C1107.11 222.1 1116.81 226.4 1129.01 230C1141.41 233.4 1154.31 235.1 1167.71 235.1C1182.71 235.1 1195.61 233.1 1206.41 229.1C1217.21 224.9 1225.51 219.1 1231.31 211.7ZM574.162 233H611.662V72.8004H574.162V233Z" fill="#E33A23"/>
</svg>
