<svg width="18" height="18" viewBox="0 0 18 18" fill="none" xmlns="http://www.w3.org/2000/svg">
<path d="M18 9.0006C17.9998 13.9561 13.9499 18.0026 8.99323 18C4.03847 17.9974 -0.00285001 13.947 1.50808e-06 8.98729C0.00285303 4.04061 4.05463 -0.00261263 9.00654 1.26668e-06C13.9565 0.00261516 18.0002 4.0494 18 9.0006ZM16.1536 9.00535C16.1551 5.04601 12.9716 1.85111 9.02032 1.8466C5.04601 1.84185 1.84921 5.02439 1.8466 8.98848C1.84375 12.9547 5.02771 16.1501 8.9861 16.1534C12.958 16.1567 16.1522 12.9713 16.1536 9.00535Z" fill="#E33A23"/>
<path d="M8.26092 6.2553C8.26092 5.2335 8.25996 4.21171 8.26139 3.19015C8.26187 2.77597 8.51803 2.4863 8.92746 2.42974C9.31598 2.37604 9.71139 2.69874 9.73682 3.09154C9.74086 3.15474 9.73967 3.21819 9.73967 3.28164C9.73991 5.12325 9.74062 6.96462 9.73729 8.80622C9.73705 8.90579 9.76985 8.94904 9.85919 8.9873C11.376 9.63792 12.8913 10.2923 14.4067 10.9465C14.7358 11.0886 14.895 11.4087 14.8154 11.7623C14.7353 12.118 14.4304 12.3818 14.0956 12.3718C14.0036 12.3692 13.9074 12.3433 13.8223 12.3067C12.1205 11.5767 10.4193 10.8451 8.71954 10.1103C8.39921 9.97178 8.26495 9.7016 8.26329 9.36869C8.25759 8.3305 8.26092 7.29278 8.26092 6.2553Z" fill="#E33A23"/>
</svg>
