<svg width="44" height="44" viewBox="0 0 44 44" fill="none" xmlns="http://www.w3.org/2000/svg">
<path d="M1.45136 1.45124C3.35749 -0.454892 6.43286 -0.469969 8.3204 1.41756L42.4972 35.5944C44.3848 37.4819 44.3697 40.5573 42.4636 42.4634C40.5574 44.3696 37.4821 44.3846 35.5945 42.4971L1.41769 8.32027C-0.469847 6.43274 -0.454772 3.35737 1.45136 1.45124Z" fill="#E33A23"/>
<path d="M1.45124 42.4637C-0.454892 40.5576 -0.469969 37.4822 1.41756 35.5947L35.5944 1.41782C37.4819 -0.469711 40.5573 -0.454633 42.4634 1.4515C44.3696 3.35763 44.3846 6.433 42.4971 8.32053L8.32027 42.4974C6.43274 44.3849 3.35737 44.3698 1.45124 42.4637Z" fill="#E33A23"/>
</svg>
