<svg width="103" height="32" viewBox="0 0 103 32" fill="none" xmlns="http://www.w3.org/2000/svg">
<path d="M5 22H1.40909V10.3636H5.15909C6.28788 10.3636 7.25379 10.5966 8.05682 11.0625C8.85985 11.5246 9.47538 12.1894 9.90341 13.0568C10.3314 13.9205 10.5455 14.9545 10.5455 16.1591C10.5455 17.3712 10.3295 18.4148 9.89773 19.2898C9.46591 20.161 8.83712 20.8314 8.01136 21.3011C7.18561 21.767 6.18182 22 5 22ZM2.81818 20.75H4.90909C5.87121 20.75 6.66856 20.5644 7.30114 20.1932C7.93371 19.822 8.4053 19.2936 8.71591 18.608C9.02652 17.9223 9.18182 17.1061 9.18182 16.1591C9.18182 15.2197 9.02841 14.411 8.72159 13.733C8.41477 13.0511 7.95644 12.5284 7.34659 12.1648C6.73674 11.7973 5.97727 11.6136 5.06818 11.6136H2.81818V20.75ZM16.3864 22.1818C15.5455 22.1818 14.8201 21.9962 14.2102 21.625C13.6042 21.25 13.1364 20.7273 12.8068 20.0568C12.4811 19.3826 12.3182 18.5985 12.3182 17.7045C12.3182 16.8106 12.4811 16.0227 12.8068 15.3409C13.1364 14.6553 13.5947 14.1212 14.1818 13.7386C14.7727 13.3523 15.4621 13.1591 16.25 13.1591C16.7045 13.1591 17.1534 13.2348 17.5966 13.3864C18.0398 13.5379 18.4432 13.7841 18.8068 14.125C19.1705 14.4621 19.4602 14.9091 19.6761 15.4659C19.892 16.0227 20 16.7083 20 17.5227V18.0909H13.2727V16.9318H18.6364C18.6364 16.4394 18.5379 16 18.3409 15.6136C18.1477 15.2273 17.8712 14.9223 17.5114 14.6989C17.1553 14.4754 16.7348 14.3636 16.25 14.3636C15.7159 14.3636 15.2538 14.4962 14.8636 14.7614C14.4773 15.0227 14.1799 15.3636 13.9716 15.7841C13.7633 16.2045 13.6591 16.6553 13.6591 17.1364V17.9091C13.6591 18.5682 13.7727 19.1269 14 19.5852C14.2311 20.0398 14.5511 20.3864 14.9602 20.625C15.3693 20.8598 15.8447 20.9773 16.3864 20.9773C16.7386 20.9773 17.0568 20.928 17.3409 20.8295C17.6288 20.7273 17.8769 20.5758 18.0852 20.375C18.2936 20.1705 18.4545 19.9167 18.5682 19.6136L19.8636 19.9773C19.7273 20.4167 19.4981 20.803 19.1761 21.1364C18.8542 21.4659 18.4564 21.7235 17.983 21.9091C17.5095 22.0909 16.9773 22.1818 16.3864 22.1818ZM28.2216 15.2273L27.017 15.5682C26.9413 15.3674 26.8295 15.1723 26.6818 14.983C26.5379 14.7898 26.3409 14.6307 26.0909 14.5057C25.8409 14.3807 25.5208 14.3182 25.1307 14.3182C24.5966 14.3182 24.1515 14.4413 23.7955 14.6875C23.4432 14.9299 23.267 15.2386 23.267 15.6136C23.267 15.947 23.3883 16.2102 23.6307 16.4034C23.8731 16.5966 24.2519 16.7576 24.767 16.8864L26.0625 17.2045C26.8428 17.3939 27.4242 17.6837 27.8068 18.0739C28.1894 18.4602 28.3807 18.9583 28.3807 19.5682C28.3807 20.0682 28.2367 20.5152 27.9489 20.9091C27.6648 21.303 27.267 21.6136 26.7557 21.8409C26.2443 22.0682 25.6496 22.1818 24.9716 22.1818C24.0814 22.1818 23.3447 21.9886 22.7614 21.6023C22.178 21.2159 21.8087 20.6515 21.6534 19.9091L22.9261 19.5909C23.0473 20.0606 23.2765 20.4129 23.6136 20.6477C23.9545 20.8826 24.3996 21 24.9489 21C25.5739 21 26.0701 20.8674 26.4375 20.6023C26.8087 20.3333 26.9943 20.0114 26.9943 19.6364C26.9943 19.3333 26.8883 19.0795 26.6761 18.875C26.464 18.6667 26.1383 18.5114 25.6989 18.4091L24.2443 18.0682C23.4451 17.8788 22.858 17.5852 22.483 17.1875C22.1117 16.786 21.9261 16.2841 21.9261 15.6818C21.9261 15.1894 22.0644 14.7538 22.3409 14.375C22.6212 13.9962 23.0019 13.6989 23.483 13.483C23.9678 13.267 24.517 13.1591 25.1307 13.1591C25.9943 13.1591 26.6723 13.3485 27.1648 13.7273C27.661 14.1061 28.0133 14.6061 28.2216 15.2273ZM31.7401 10.3636V22H30.3991V10.3636H31.7401ZM34.196 22V13.2727H35.5369V22H34.196ZM34.8778 11.8182C34.6165 11.8182 34.3911 11.7292 34.2017 11.5511C34.0161 11.3731 33.9233 11.1591 33.9233 10.9091C33.9233 10.6591 34.0161 10.4451 34.2017 10.267C34.3911 10.089 34.6165 10 34.8778 10C35.1392 10 35.3627 10.089 35.5483 10.267C35.7377 10.4451 35.8324 10.6591 35.8324 10.9091C35.8324 11.1591 35.7377 11.3731 35.5483 11.5511C35.3627 11.7292 35.1392 11.8182 34.8778 11.8182ZM37.7429 22V20.9773L42.6974 14.6136V14.5227H37.902V13.2727H44.4247V14.3409L39.6065 20.6591V20.75H44.5838V22H37.7429ZM49.2173 22.2045C48.6643 22.2045 48.1624 22.1004 47.7116 21.892C47.2609 21.6799 46.9029 21.375 46.6378 20.9773C46.3726 20.5758 46.2401 20.0909 46.2401 19.5227C46.2401 19.0227 46.3385 18.6174 46.5355 18.3068C46.7325 17.9924 46.9957 17.7462 47.3253 17.5682C47.6548 17.3902 48.0185 17.2576 48.4162 17.1705C48.8177 17.0795 49.2211 17.0076 49.6264 16.9545C50.1567 16.8864 50.5866 16.8352 50.9162 16.8011C51.2495 16.7633 51.492 16.7008 51.6435 16.6136C51.7988 16.5265 51.8764 16.375 51.8764 16.1591V16.1136C51.8764 15.553 51.723 15.1174 51.4162 14.8068C51.1132 14.4962 50.6529 14.3409 50.0355 14.3409C49.3954 14.3409 48.8935 14.4811 48.5298 14.7614C48.1662 15.0417 47.9105 15.3409 47.7628 15.6591L46.4901 15.2045C46.7173 14.6742 47.0204 14.2614 47.3991 13.9659C47.7817 13.6667 48.1984 13.4583 48.6491 13.3409C49.1037 13.2197 49.5507 13.1591 49.9901 13.1591C50.2704 13.1591 50.5923 13.1932 50.956 13.2614C51.3234 13.3258 51.6776 13.4602 52.0185 13.6648C52.3632 13.8693 52.6491 14.178 52.8764 14.5909C53.1037 15.0038 53.2173 15.5568 53.2173 16.25V22H51.8764V20.8182H51.8082C51.7173 21.0076 51.5658 21.2102 51.3537 21.4261C51.1416 21.642 50.8594 21.8258 50.5071 21.9773C50.1548 22.1288 49.7249 22.2045 49.2173 22.2045ZM49.4219 21C49.9522 21 50.3991 20.8958 50.7628 20.6875C51.1302 20.4792 51.4067 20.2102 51.5923 19.8807C51.7817 19.5511 51.8764 19.2045 51.8764 18.8409V17.6136C51.8196 17.6818 51.6946 17.7443 51.5014 17.8011C51.312 17.8542 51.0923 17.9015 50.8423 17.9432C50.5961 17.9811 50.3556 18.0152 50.1207 18.0455C49.8897 18.072 49.7022 18.0947 49.5582 18.1136C49.2098 18.1591 48.884 18.233 48.581 18.3352C48.2817 18.4337 48.0393 18.5833 47.8537 18.7841C47.6719 18.9811 47.581 19.25 47.581 19.5909C47.581 20.0568 47.7533 20.4091 48.098 20.6477C48.4465 20.8826 48.8878 21 49.4219 21Z" fill="#0A4F8F"/>
<path d="M102.354 18.3536C102.549 18.1583 102.549 17.8417 102.354 17.6464L99.1716 14.4645C98.9763 14.2692 98.6597 14.2692 98.4645 14.4645C98.2692 14.6597 98.2692 14.9763 98.4645 15.1716L101.293 18L98.4645 20.8284C98.2692 21.0237 98.2692 21.3403 98.4645 21.5355C98.6597 21.7308 98.9763 21.7308 99.1716 21.5355L102.354 18.3536ZM61 18.5H102V17.5H61V18.5Z" fill="#0A4F8F"/>
</svg>
