<svg width="32" height="32" viewBox="0 0 32 32" fill="none" xmlns="http://www.w3.org/2000/svg">
<path d="M31.2091 15.9984C31.2091 7.16165 24.2244 0 15.6061 0C6.9877 0 0 7.16165 0 15.9984C0 24.8352 6.98464 31.9969 15.603 31.9969C15.6948 31.9969 15.7866 31.9969 15.8784 31.9906V19.5432H12.5252V15.5373H15.8784V12.5886C15.8784 9.1693 17.9129 7.30909 20.8897 7.30909C22.3154 7.30909 23.5422 7.41574 23.894 7.46593V11.0421H21.8442C20.2288 11.0421 19.9107 11.8294 19.9107 12.987V15.5373H23.7808L23.276 19.5432H19.9107V31.3852C26.4364 29.4622 31.2091 23.3044 31.2091 15.9984Z" fill="#B7B7B7"/>
</svg>
