<svg width="32" height="32" viewBox="0 0 32 32" fill="none" xmlns="http://www.w3.org/2000/svg">
<path d="M16.3686 0C7.75333 0 0.765625 7.16479 0.765625 15.9984C0.765625 24.8321 7.75333 31.9969 16.3686 31.9969C24.9839 31.9969 31.9716 24.8321 31.9716 15.9984C31.9716 7.16479 24.987 0 16.3686 0ZM23.494 12.4756C23.5001 12.6325 23.5032 12.7925 23.5032 12.9493C23.5032 17.8022 19.9023 23.3985 13.3123 23.3985C11.29 23.3985 9.40847 22.7899 7.82369 21.7485C8.10516 21.783 8.38968 21.7986 8.67727 21.7986C10.3569 21.7986 11.8988 21.212 13.1257 20.227C11.5592 20.1957 10.2345 19.1354 9.77866 17.6767C9.99588 17.7206 10.2223 17.7426 10.4517 17.7426C10.7791 17.7426 11.0942 17.6987 11.3971 17.614C9.75724 17.2783 8.5243 15.7914 8.5243 14.0127C8.5243 13.9971 8.5243 13.9814 8.5243 13.9657C9.00768 14.2417 9.55838 14.4049 10.1458 14.4237C9.18513 13.7649 8.55183 12.6419 8.55183 11.3683C8.55183 10.697 8.72928 10.0665 9.03828 9.52377C10.8036 11.7447 13.4438 13.2065 16.4206 13.3603C16.3595 13.0905 16.3289 12.8113 16.3289 12.5227C16.3289 10.4962 17.932 8.84933 19.9114 8.84933C20.9425 8.84933 21.8725 9.29477 22.5242 10.01C23.341 9.84374 24.1059 9.53946 24.7973 9.11911C24.5281 9.97549 23.9621 10.6939 23.2217 11.1487C23.9468 11.0609 24.6382 10.8632 25.2776 10.5715C24.8004 11.3087 24.1946 11.9549 23.494 12.4756Z" fill="#B7B7B7"/>
</svg>
