<svg width="32" height="32" viewBox="0 0 32 32" fill="none" xmlns="http://www.w3.org/2000/svg">
<path d="M16.1382 0C7.52286 0 0.535156 7.16479 0.535156 15.9984C0.535156 24.8321 7.52286 31.9969 16.1382 31.9969C24.7535 31.9969 31.7412 24.8321 31.7412 15.9984C31.7412 7.16479 24.7535 0 16.1382 0ZM11.6041 24.1859H7.80433V12.4631H11.6041V24.1859ZM9.70422 10.8632H9.67974C8.40396 10.8632 7.58099 9.96294 7.58099 8.83678C7.58099 7.68552 8.4315 6.81031 9.73175 6.81031C11.032 6.81031 11.8305 7.68552 11.855 8.83678C11.8519 9.96294 11.0289 10.8632 9.70422 10.8632ZM25.3072 24.1859H21.5074V17.9151C21.5074 16.3404 20.9567 15.2644 19.5831 15.2644C18.5337 15.2644 17.9096 15.989 17.6342 16.6886C17.5333 16.9395 17.5088 17.2877 17.5088 17.6391V24.1859H13.709C13.709 24.1859 13.7579 13.5642 13.709 12.4631H17.5088V14.1225C18.0136 13.3226 18.9161 12.187 20.9323 12.187C23.4318 12.187 25.3072 13.8622 25.3072 17.4634V24.1859Z" fill="#B7B7B7"/>
</svg>
