<svg width="31" height="32" viewBox="0 0 31 32" fill="none" xmlns="http://www.w3.org/2000/svg">
<path d="M15.7484 0.320312C7.32581 0.320312 0.494141 7.32198 0.494141 15.9611C0.494141 24.5971 7.32275 31.5988 15.7484 31.5988C24.1709 31.5988 30.9995 24.5971 30.9995 15.9611C30.9995 7.32198 24.1709 0.320312 15.7484 0.320312ZM17.5014 21.1528C16.091 21.1528 14.7632 20.3717 14.3074 19.4839C14.3074 19.4839 13.5487 22.5707 13.3896 23.1667C12.8236 25.2716 11.1592 27.3796 11.0308 27.5522C10.942 27.6714 10.7401 27.6337 10.7218 27.4769C10.6881 27.2071 10.2628 24.5532 10.7615 22.3856C11.0124 21.2971 12.4411 15.0828 12.4411 15.0828C12.4411 15.0828 12.0251 14.2295 12.0251 12.9622C12.0251 10.9797 13.1479 9.49588 14.546 9.49588C15.7331 9.49588 16.3082 10.4119 16.3082 11.5067C16.3082 12.7301 15.5464 14.5652 15.1548 16.2623C14.8275 17.6833 15.8493 18.844 17.2169 18.844C19.6919 18.844 21.3593 15.5816 21.3593 11.72C21.3593 8.7838 19.4319 6.5848 15.9228 6.5848C11.9608 6.5848 9.48881 9.61509 9.48881 12.9999C9.48881 14.1668 9.82534 14.9918 10.3516 15.6286C10.5933 15.9204 10.6269 16.0396 10.5382 16.3752C10.477 16.623 10.3332 17.2128 10.272 17.4512C10.1833 17.79 9.91713 17.9123 9.6173 17.7868C7.7939 17.0214 6.94032 14.973 6.94032 12.6705C6.94032 8.86536 10.0701 4.3011 16.2776 4.3011C21.2675 4.3011 24.5503 8.0027 24.5503 11.9772C24.5533 17.2285 21.702 21.1528 17.5014 21.1528Z" fill="#B7B7B7"/>
</svg>
