<svg width="71" height="69" viewBox="0 0 71 69" fill="none" xmlns="http://www.w3.org/2000/svg">
<path fill-rule="evenodd" clip-rule="evenodd" d="M35.5 68.4153C54.7738 68.4153 70.3983 53.2309 70.3983 34.5C70.3983 15.7691 54.7738 0.584746 35.5 0.584746C16.2262 0.584746 0.601695 15.7691 0.601695 34.5C0.601695 53.2309 16.2262 68.4153 35.5 68.4153ZM35.5 69C55.1061 69 71 53.5538 71 34.5C71 15.4462 55.1061 0 35.5 0C15.8939 0 0 15.4462 0 34.5C0 53.5538 15.8939 69 35.5 69Z" fill="#E33A23"/>
<path d="M39.8767 38.7534V37.6499L30.6313 33.7635V34.2913L39.8767 30.4049V29.3014L30.1507 33.4516V34.6032L39.8767 38.7534Z" fill="#E33A23"/>
</svg>
