<svg width="67" height="86" viewBox="0 0 67 86" fill="none" xmlns="http://www.w3.org/2000/svg">
<g clip-path="url(#clip0_22_80)">
<path d="M67 52.1804C63.253 52.9522 59.506 53.7239 55.7609 54.4975C52.7162 55.1271 49.6734 55.7765 46.6234 56.3828C45.9767 56.5123 45.6642 56.8145 45.5043 57.4567C44.9331 59.7504 43.902 61.803 42.3914 63.6541C40.209 66.3309 36.0093 66.41 33.7371 65.4332C31.5205 64.4798 30.1572 62.6934 28.977 60.7218C28.1472 59.3366 27.7825 59.4068 29.6237 58.6332C37.1769 55.4581 44.7211 52.2632 52.2672 49.0701C56.8099 47.147 61.3472 45.2096 65.8935 43.2919C66.242 43.1444 66.6317 43.0976 67.0018 43.0059C67 46.0641 67 49.1222 67 52.1804Z" fill="white"/>
<path d="M-3.48083e-05 17.9993C0.804684 17.9454 1.6112 17.8446 2.41592 17.8446C10.1092 17.8338 17.8026 17.8392 25.4959 17.8392C26.8287 17.8392 28.1615 17.8392 29.4925 17.8392C29.5051 17.958 29.5177 18.0767 29.5303 18.1936C28.8351 18.4149 28.1436 18.6488 27.443 18.8556C19.4695 21.2158 12.9258 25.697 7.81184 32.2451C3.90141 37.2534 1.50702 42.9524 0.355622 49.1929C0.290957 49.5383 0.118517 49.8639 -0.00183105 50.2003C-3.48083e-05 39.4661 -3.48083e-05 28.7336 -3.48083e-05 17.9993Z" fill="white"/>
<path d="M44.5469 85.9998C45.4719 85.4853 46.3755 84.9277 47.3257 84.4635C53.8371 81.2758 58.9707 76.6022 62.6117 70.3113C64.514 67.0228 65.7875 63.4933 66.612 59.7911C66.673 59.5177 66.867 59.2748 67 59.0176C67 68.0123 67 77.007 67 86.0016C59.515 85.9998 52.0318 85.9998 44.5469 85.9998Z" fill="white"/>
<path d="M66.9999 40.1266C66.7287 39.5743 66.3892 39.0436 66.1934 38.4661C64.3702 33.0693 61.5663 28.2842 57.4331 24.3283C54.692 21.7054 51.5325 19.7536 47.94 18.5159C47.6436 18.4134 47.3562 18.2857 47.0652 18.1687C47.076 18.0572 47.0867 17.9457 47.0975 17.8341C48.2328 17.8341 49.368 17.8341 50.5014 17.8341C55.6477 17.8341 60.7957 17.8323 65.9419 17.8413C66.294 17.8413 66.6461 17.9439 66.9981 17.9978C66.9999 25.3753 66.9999 32.7509 66.9999 40.1266Z" fill="white"/>
<path d="M0 62.4336C0.251475 63.2863 0.538874 64.13 0.747239 64.9935C2.61354 72.7469 6.67665 78.9946 13.3533 83.4416C14.3718 84.1198 15.4801 84.6613 16.5327 85.2909C16.856 85.4834 17.1272 85.7604 17.4236 85.9997C11.6289 85.9997 5.83241 85.9997 0 85.9997C0 78.1437 0 70.2896 0 62.4336Z" fill="white"/>
<path d="M0 8.28724C0.335898 6.51889 0.700536 4.76133 1.69745 3.21244C2.70335 1.64916 3.94995 0.409696 5.86834 0.0732947C6.21681 0.0121309 6.58684 -0.00765744 6.93531 0.0409139C8.613 0.271178 8.83214 0.582394 8.56271 2.259C8.36871 3.45889 8.17472 4.65879 7.96276 5.97381C7.70051 5.79931 7.56938 5.73815 7.47239 5.64281C6.3192 4.50588 5.06003 4.639 4.38464 6.10333C4.03437 6.86428 3.86193 7.76735 3.85115 8.61105C3.83139 10.0016 4.91633 10.5593 6.1252 9.8757C6.53474 9.64364 6.91555 9.36121 7.38796 9.04819C7.44005 9.25507 7.51909 9.38999 7.49933 9.50872C7.25504 10.9245 7.03051 12.3474 6.71437 13.747C6.63713 14.0888 6.30662 14.4828 5.98689 14.6447C4.00024 15.6467 1.71362 14.8606 0.766997 12.8296C0.413137 12.0812 0.249678 11.2429 0 10.446C0 9.72639 0 9.00682 0 8.28724Z" fill="white"/>
<path d="M67 10.6234C66.7952 11.71 66.5599 12.7912 66.4001 13.8831C66.3085 14.502 66.048 14.761 65.4121 14.7502C63.6788 14.7232 61.9436 14.7232 60.2102 14.7484C59.4684 14.7592 59.2941 14.4588 59.4055 13.7608C60.0791 9.56567 60.7347 5.36875 61.3706 1.16823C61.4676 0.527812 61.7676 0.299347 62.3837 0.32813C63.0106 0.358712 63.641 0.364109 64.2661 0.326331C64.9703 0.283156 65.1499 0.583579 65.0403 1.24199C64.6362 3.66156 64.2589 6.08473 63.8763 8.5079C63.8117 8.91446 63.765 9.32282 63.6859 9.90028C64.8679 9.90028 65.9348 9.90028 67 9.90028C67 10.1431 67 10.3842 67 10.6234Z" fill="white"/>
<path d="M26.7694 6.90659C27.082 4.88099 27.3909 3.08925 27.6226 1.28491C27.7142 0.574332 27.9945 0.273909 28.7094 0.326079C29.2446 0.365655 29.7871 0.360258 30.3224 0.326079C31.0265 0.281105 31.2834 0.505972 31.1612 1.26153C30.5577 4.98353 30.0206 8.71452 29.4153 12.4365C29.0363 14.7697 29.0004 14.7356 26.6006 14.7554C25.812 14.7626 25.4204 14.5377 25.2462 13.7228C24.8546 11.8932 24.3624 10.0871 23.7948 8.29177C23.529 10.0601 23.2344 11.8249 23.0117 13.5986C22.9057 14.4333 22.5752 14.7697 21.6932 14.7608C19.2647 14.7356 19.2791 14.7751 19.6473 12.4329C20.2275 8.73791 20.7987 5.04109 21.3412 1.34068C21.4471 0.621104 21.713 0.297296 22.4836 0.322481C25.6198 0.421422 24.878 -0.152439 25.6611 2.78882C25.9845 4.00311 26.2665 5.22818 26.5718 6.44786C26.5898 6.53061 26.6383 6.60797 26.7694 6.90659Z" fill="white"/>
<path d="M19.2666 5.87712C19.2181 8.39743 18.6002 10.7504 16.9656 12.7131C16.3674 13.4309 15.6058 14.0875 14.7921 14.5372C12.6205 15.7371 10.4165 14.96 9.29561 12.7419C8.66513 11.497 8.50885 10.173 8.59507 8.81119C8.77829 5.86993 9.6818 3.22729 11.981 1.24486C14.6359 -1.04519 17.9661 -0.0557723 18.9612 3.30824C19.1372 3.90369 19.1786 4.54051 19.2612 5.16115C19.2917 5.39501 19.2666 5.63786 19.2666 5.87712ZM15.6687 7.01405C15.5968 6.98527 15.5268 6.95469 15.4549 6.9259C15.4549 6.77659 15.4585 6.62728 15.4549 6.47797C15.4352 5.84654 15.3023 5.26009 14.6161 5.04242C13.9245 4.82295 13.4845 5.25649 13.1126 5.7512C12.4193 6.66686 12.2756 7.74082 12.4426 8.82198C12.5091 9.25193 12.8701 9.87976 13.2096 9.96431C13.621 10.0668 14.3664 9.82939 14.5874 9.49119C15.0741 8.74643 15.322 7.84876 15.6687 7.01405Z" fill="white"/>
<path d="M48.5597 9.16235C48.7088 6.10055 49.5135 3.17368 52.1594 1.1139C54.8699 -0.994455 58.0151 -0.0230285 58.9061 3.29421C59.9551 7.2087 58.9438 10.7238 56.1291 13.6165C54.5107 15.2805 52.2636 15.5306 50.6577 14.4044C49.4003 13.523 48.8812 12.19 48.6621 10.7256C48.5902 10.2543 48.5956 9.77039 48.5597 9.16235ZM55.6459 6.95505C55.4285 6.14733 55.5022 5.32161 54.5789 5.03558C53.9269 4.8323 53.0737 5.39897 52.7719 6.32722C52.5276 7.08277 52.3444 7.90669 52.3839 8.68563C52.4073 9.14795 52.8186 9.76499 53.2299 9.98806C53.8191 10.3083 54.4406 9.89092 54.7262 9.33684C55.1124 8.58489 55.3459 7.75378 55.6459 6.95505Z" fill="white"/>
<path d="M42.4597 11.1173C42.3178 12.0311 42.1525 12.9432 42.0447 13.8606C41.9711 14.4759 41.707 14.7763 41.0658 14.7457C40.4694 14.7169 39.8659 14.7043 39.2713 14.7493C38.4487 14.8123 38.3229 14.4219 38.4397 13.7149C38.9516 10.6136 39.4366 7.50859 39.9288 4.40363C40.0922 3.36924 40.2754 2.33485 40.394 1.29506C40.4802 0.539507 40.8395 0.287656 41.5813 0.323635C42.6555 0.375804 43.735 0.329031 44.811 0.338026C47.0922 0.357814 48.3065 1.45876 48.3154 3.73442C48.3226 5.68447 47.9885 7.56796 46.1959 8.82182C46.027 8.93875 45.9839 9.40287 46.0504 9.66192C46.4132 11.0525 46.8138 12.4341 47.2359 13.8067C47.4407 14.4723 47.2718 14.7673 46.5569 14.7475C45.7791 14.7259 45.0014 14.7187 44.2236 14.7475C43.5841 14.7709 43.3291 14.4777 43.2339 13.866C43.0884 12.9324 42.8638 12.0095 42.6716 11.0831C42.6016 11.0957 42.5315 11.1065 42.4597 11.1173ZM43.1458 6.6451C43.2303 6.72066 43.3165 6.79621 43.4009 6.87357C43.753 6.6397 44.2847 6.4778 44.4176 6.15219C44.6134 5.67188 44.5613 5.07283 44.5307 4.53135C44.5236 4.41262 44.1499 4.22373 43.9559 4.23632C43.7907 4.24712 43.5446 4.47918 43.5015 4.65368C43.347 5.30849 43.259 5.97949 43.1458 6.6451Z" fill="white"/>
<path d="M24.8116 46.0516C25.1762 41.986 26.712 38.6346 30.6242 36.8375C34.1413 35.222 38.111 37.0461 39.3198 40.7286C39.5318 41.3762 39.1564 41.5237 38.7379 41.7108C36.171 42.8585 33.6042 44.0062 31.0337 45.145C29.3938 45.8717 27.743 46.5805 26.1031 47.3055C25.0702 47.7624 24.8978 47.6617 24.8133 46.5014C24.8008 46.3521 24.8116 46.2009 24.8116 46.0516Z" fill="white"/>
<path d="M33.3043 5.1931C32.6954 5.15173 32.1745 5.11755 31.5404 5.07437C31.5404 4.84051 31.5135 4.61384 31.5458 4.39617C31.6464 3.68559 31.7793 2.98041 31.8817 2.26983C32.2122 -0.0292135 31.9859 0.373748 34.1755 0.341368C35.67 0.31978 37.1645 0.355759 38.6572 0.330574C39.3505 0.317981 39.6559 0.542849 39.5212 1.28041C39.3361 2.28062 39.1583 3.28443 39.0595 4.29363C38.9859 5.04379 38.5979 5.29564 37.9297 5.1949C37.1932 5.08337 36.9364 5.39818 36.834 6.10336C36.4604 8.67764 36.0041 11.2393 35.6413 13.8154C35.5371 14.5512 35.2156 14.794 34.5312 14.7509C33.9654 14.7149 33.3924 14.6753 32.8301 14.7239C32.0003 14.7958 31.8781 14.4163 31.9967 13.7039C32.399 11.2861 32.7673 8.86113 33.1445 6.43977C33.202 6.05839 33.2415 5.67881 33.3043 5.1931Z" fill="white"/>
</g>
<defs>
<clipPath id="clip0_22_80">
<rect width="67" height="86" fill="white"/>
</clipPath>
</defs>
</svg>
