<svg width="38" height="35" viewBox="0 0 38 35" fill="none" xmlns="http://www.w3.org/2000/svg">
<path d="M29.6236 24.4311C31.8675 26.5568 34.0672 28.6501 36.279 30.7299C36.9123 31.3258 37.3084 31.9924 37.0973 32.8595C36.7052 34.4753 34.7086 34.9719 33.3856 33.7476C31.3226 31.8377 29.3019 29.8877 27.2731 27.9472C27.0619 27.7448 26.9051 27.4927 26.6779 27.2062C22.0654 30.2983 17.1673 31.1673 11.9053 29.5745C8.22577 28.461 5.3746 26.2684 3.33978 23.1514C-0.739916 16.9022 0.526821 8.77749 6.32365 3.8824C12.0742 -0.974494 20.7021 -1.19031 26.7503 3.29988C32.8125 7.79962 35.3138 16.8908 29.6236 24.4311ZM16.9019 26.255C23.3422 26.255 28.5157 21.3466 28.5237 15.2292C28.5297 9.08689 23.2838 4.10586 16.8416 4.13833C10.4395 4.17079 5.21576 9.17093 5.24391 15.2387C5.27206 21.3409 10.4697 26.255 16.9019 26.255Z" fill="white"/>
</svg>
