<svg width="23" height="18" viewBox="0 0 23 18" fill="none" xmlns="http://www.w3.org/2000/svg">
<g clip-path="url(#clip0_19_3)">
<path d="M11.5042 12.0509C10.5069 11.2512 9.52459 10.4644 8.54274 9.67625C5.77051 7.45095 2.99916 5.22343 0.222527 3.00256C0.0619713 2.87409 -0.0138955 2.74738 0.00330687 2.54049C0.0249201 2.27645 0.0121286 2.00975 0.0235968 1.74438C0.0646179 0.763083 0.84931 0.0320964 1.89027 -0.000244219C1.92688 -0.00157329 1.96394 -0.000687242 2.00055 -0.000687242C8.33763 -0.000687242 14.6752 -0.00113026 21.0122 -0.000687242C21.965 -0.000687242 22.7153 0.498599 22.9151 1.33148C23.0046 1.70406 22.9579 2.1081 22.9967 2.49574C23.0214 2.74428 22.9292 2.89314 22.7378 3.04642C19.0648 5.98543 15.3977 8.93153 11.7296 11.8763C11.6612 11.9317 11.5911 11.984 11.5042 12.0509Z" fill="#E33A23"/>
<path d="M22.5289 17.9996C15.1645 17.9996 7.8469 17.9996 0.485168 17.9996C2.72236 15.325 4.9397 12.674 7.16498 10.0137C8.61792 11.1793 10.0528 12.3307 11.5061 13.4971C12.9459 12.3422 14.3847 11.1872 15.8478 10.0137C18.0686 12.6687 20.2829 15.3153 22.5289 17.9996Z" fill="#E33A23"/>
<path d="M0.0353088 16.9435C0.0353088 12.6847 0.0353088 8.48091 0.0353088 4.22656C2.17237 5.94195 4.28385 7.63606 6.40062 9.33505C4.28076 11.8691 2.17458 14.3864 0.0353088 16.9435Z" fill="#E33A23"/>
<path d="M16.6122 9.33516C18.7281 7.63706 20.833 5.94737 22.9634 4.2373C22.9634 8.47038 22.9634 12.6769 22.9634 16.9264C20.8413 14.3892 18.7343 11.8715 16.6122 9.33516Z" fill="#E33A23"/>
</g>
<defs>
<clipPath id="clip0_19_3">
<rect width="23" height="18" fill="white"/>
</clipPath>
</defs>
</svg>
