<svg width="20" height="29" viewBox="0 0 20 29" fill="none" xmlns="http://www.w3.org/2000/svg">
<g clip-path="url(#clip0_22_127)">
<path d="M9.98721 29.0006C9.59217 28.389 9.21423 27.8239 8.85682 27.2468C6.38909 23.2636 3.85126 19.3201 1.47588 15.2819C-2.08632 9.22105 1.08939 1.87673 7.88717 0.252123C13.3493 -1.05204 19.0441 2.85701 19.8701 8.43028C20.2395 10.9163 19.8342 13.218 18.5208 15.3439C15.8051 19.7457 13.0723 24.1371 10.3446 28.5303C10.2557 28.675 10.1411 28.8025 9.98721 29.0006ZM10.0094 5.65657C7.56053 5.65657 5.62637 7.58611 5.60414 10.0497C5.58191 12.5237 7.57251 14.5618 10.0112 14.5618C12.419 14.56 14.3976 12.5702 14.4165 10.1341C14.4353 7.62918 12.4926 5.65657 10.0094 5.65657Z" fill="#E33A23"/>
</g>
<defs>
<clipPath id="clip0_22_127">
<rect width="20" height="29" fill="white"/>
</clipPath>
</defs>
</svg>
