<svg width="1014" height="146" viewBox="0 0 1014 146" fill="none" xmlns="http://www.w3.org/2000/svg">
<mask id="path-1-outside-1_313_2909" maskUnits="userSpaceOnUse" x="0" y="0" width="1382" height="146" fill="black">
<rect fill="white" width="1382" height="146"/>
<path d="M76.6 145C65.6667 145 55.6 143.2 46.4 139.6C37.2 136 29.2 131 22.4 124.6C15.6 118.067 10.3333 110.467 6.6 101.8C2.86667 93 1 83.4 1 73C1 62.6 2.86667 53.0667 6.6 44.4C10.3333 35.6 15.6 28 22.4 21.6C29.2 15.0667 37.2 10 46.4 6.4C55.6 2.8 65.6 1 76.4 1C87.3333 1 97.3333 2.8 106.4 6.4C115.6 10 123.6 15.0667 130.4 21.6C137.2 28 142.467 35.6 146.2 44.4C149.933 53.0667 151.8 62.6 151.8 73C151.8 83.4 149.933 93 146.2 101.8C142.467 110.6 137.2 118.2 130.4 124.6C123.6 131 115.6 136 106.4 139.6C97.3333 143.2 87.4 145 76.6 145ZM76.4 122.2C83.4667 122.2 90 121 96 118.6C102 116.2 107.2 112.8 111.6 108.4C116 103.867 119.4 98.6667 121.8 92.8C124.333 86.8 125.6 80.2 125.6 73C125.6 65.8 124.333 59.2667 121.8 53.4C119.4 47.4 116 42.2 111.6 37.8C107.2 33.2667 102 29.8 96 27.4C90 25 83.4667 23.8 76.4 23.8C69.3333 23.8 62.8 25 56.8 27.4C50.9333 29.8 45.7333 33.2667 41.2 37.8C36.8 42.2 33.3333 47.4 30.8 53.4C28.4 59.2667 27.2 65.8 27.2 73C27.2 80.0667 28.4 86.6 30.8 92.6C33.3333 98.6 36.8 103.867 41.2 108.4C45.6 112.8 50.8 116.2 56.8 118.6C62.8 121 69.3333 122.2 76.4 122.2ZM222.159 144.4C213.093 144.4 205.093 142.733 198.159 139.4C191.226 135.933 185.826 130.733 181.959 123.8C178.093 116.733 176.159 107.867 176.159 97.2V36.2H201.159V93.8C201.159 103.4 203.293 110.6 207.559 115.4C211.959 120.067 218.159 122.4 226.159 122.4C232.026 122.4 237.093 121.2 241.359 118.8C245.759 116.4 249.159 112.8 251.559 108C254.093 103.2 255.359 97.2667 255.359 90.2V36.2H280.359V143H256.559V114.2L260.759 123C257.159 129.933 251.893 135.267 244.959 139C238.026 142.6 230.426 144.4 222.159 144.4ZM313.092 143V36.2H336.892V65.6L334.092 57C337.292 49.8 342.292 44.3333 349.092 40.6C356.026 36.8667 364.626 35 374.892 35V58.8C373.826 58.5333 372.826 58.4 371.892 58.4C370.959 58.2667 370.026 58.2 369.092 58.2C359.626 58.2 352.092 61 346.492 66.6C340.892 72.0667 338.092 80.2667 338.092 91.2V143H313.092ZM454.75 143V3H512.35C524.75 3 535.35 5 544.15 9C553.083 13 559.95 18.7333 564.75 26.2C569.55 33.6667 571.95 42.5333 571.95 52.8C571.95 63.0667 569.55 71.9333 564.75 79.4C559.95 86.8667 553.083 92.6 544.15 96.6C535.35 100.6 524.75 102.6 512.35 102.6H469.15L480.75 90.4V143H454.75ZM480.75 93.2L469.15 80.6H511.15C522.617 80.6 531.217 78.2 536.95 73.4C542.817 68.4667 545.75 61.6 545.75 52.8C545.75 43.8667 542.817 37 536.95 32.2C531.217 27.4 522.617 25 511.15 25H469.15L480.75 12.2V93.2ZM594.537 143V36.2H618.338V65.6L615.537 57C618.737 49.8 623.737 44.3333 630.537 40.6C637.471 36.8667 646.071 35 656.338 35V58.8C655.271 58.5333 654.271 58.4 653.338 58.4C652.404 58.2667 651.471 58.2 650.537 58.2C641.071 58.2 633.537 61 627.938 66.6C622.338 72.0667 619.537 80.2667 619.537 91.2V143H594.537ZM726.769 144.4C714.902 144.4 704.502 142.067 695.569 137.4C686.769 132.6 679.902 126.067 674.969 117.8C670.169 109.533 667.769 100.133 667.769 89.6C667.769 78.9333 670.102 69.5333 674.769 61.4C679.569 53.1333 686.102 46.6667 694.369 42C702.769 37.3333 712.302 35 722.969 35C733.369 35 742.635 37.2667 750.769 41.8C758.902 46.3333 765.302 52.7333 769.969 61C774.635 69.2667 776.969 79 776.969 90.2C776.969 91.2667 776.902 92.4667 776.769 93.8C776.769 95.1333 776.702 96.4 776.569 97.6H687.569V81H763.369L753.569 86.2C753.702 80.0667 752.435 74.6667 749.769 70C747.102 65.3333 743.435 61.6667 738.769 59C734.235 56.3333 728.969 55 722.969 55C716.835 55 711.435 56.3333 706.769 59C702.235 61.6667 698.635 65.4 695.969 70.2C693.435 74.8667 692.169 80.4 692.169 86.8V90.8C692.169 97.2 693.635 102.867 696.569 107.8C699.502 112.733 703.635 116.533 708.969 119.2C714.302 121.867 720.435 123.2 727.369 123.2C733.369 123.2 738.769 122.267 743.569 120.4C748.369 118.533 752.635 115.6 756.369 111.6L769.769 127C764.969 132.6 758.902 136.933 751.569 140C744.369 142.933 736.102 144.4 726.769 144.4ZM833.983 144.4C825.049 144.4 816.449 143.267 808.183 141C800.049 138.6 793.583 135.733 788.783 132.4L798.383 113.4C803.183 116.467 808.916 119 815.583 121C822.25 123 828.916 124 835.583 124C843.449 124 849.116 122.933 852.583 120.8C856.183 118.667 857.983 115.8 857.983 112.2C857.983 109.267 856.783 107.067 854.383 105.6C851.983 104 848.849 102.8 844.983 102C841.116 101.2 836.783 100.467 831.983 99.8C827.316 99.1333 822.583 98.2667 817.783 97.2C813.116 96 808.849 94.3333 804.983 92.2C801.116 89.9333 797.983 86.9333 795.583 83.2C793.183 79.4667 791.983 74.5333 791.983 68.4C791.983 61.6 793.916 55.7333 797.783 50.8C801.649 45.7333 807.049 41.8667 813.983 39.2C821.049 36.4 829.383 35 838.983 35C846.183 35 853.45 35.8 860.783 37.4C868.116 39 874.183 41.2667 878.983 44.2L869.383 63.2C864.316 60.1333 859.183 58.0667 853.983 57C848.916 55.8 843.849 55.2 838.783 55.2C831.183 55.2 825.516 56.3333 821.783 58.6C818.183 60.8667 816.383 63.7333 816.383 67.2C816.383 70.4 817.583 72.8 819.983 74.4C822.383 76 825.516 77.2667 829.383 78.2C833.249 79.1333 837.516 79.9333 842.183 80.6C846.983 81.1333 851.716 82 856.383 83.2C861.049 84.4 865.316 86.0667 869.183 88.2C873.183 90.2 876.383 93.0667 878.783 96.8C881.183 100.533 882.383 105.4 882.383 111.4C882.383 118.067 880.383 123.867 876.383 128.8C872.516 133.733 866.983 137.6 859.783 140.4C852.583 143.067 843.983 144.4 833.983 144.4ZM954.112 144.4C942.246 144.4 931.846 142.067 922.912 137.4C914.112 132.6 907.246 126.067 902.312 117.8C897.513 109.533 895.112 100.133 895.112 89.6C895.112 78.9333 897.446 69.5333 902.112 61.4C906.912 53.1333 913.446 46.6667 921.713 42C930.113 37.3333 939.646 35 950.312 35C960.713 35 969.979 37.2667 978.112 41.8C986.246 46.3333 992.646 52.7333 997.312 61C1001.98 69.2667 1004.31 79 1004.31 90.2C1004.31 91.2667 1004.25 92.4667 1004.11 93.8C1004.11 95.1333 1004.05 96.4 1003.91 97.6H914.912V81H990.713L980.912 86.2C981.046 80.0667 979.779 74.6667 977.112 70C974.446 65.3333 970.779 61.6667 966.112 59C961.579 56.3333 956.312 55 950.312 55C944.179 55 938.779 56.3333 934.112 59C929.579 61.6667 925.979 65.4 923.312 70.2C920.779 74.8667 919.513 80.4 919.513 86.8V90.8C919.513 97.2 920.979 102.867 923.912 107.8C926.846 112.733 930.979 116.533 936.312 119.2C941.646 121.867 947.779 123.2 954.713 123.2C960.713 123.2 966.112 122.267 970.912 120.4C975.712 118.533 979.979 115.6 983.713 111.6L997.112 127C992.312 132.6 986.246 136.933 978.912 140C971.712 142.933 963.446 144.4 954.112 144.4ZM1088.93 35C1097.46 35 1105.06 36.6667 1111.73 40C1118.53 43.3333 1123.86 48.4667 1127.73 55.4C1131.59 62.2 1133.53 71 1133.53 81.8V143H1108.53V85C1108.53 75.5333 1106.26 68.4667 1101.73 63.8C1097.33 59.1333 1091.13 56.8 1083.13 56.8C1077.26 56.8 1072.06 58 1067.53 60.4C1062.99 62.8 1059.46 66.4 1056.93 71.2C1054.53 75.8667 1053.33 81.8 1053.33 89V143H1028.33V36.2H1052.13V65L1047.93 56.2C1051.66 49.4 1057.06 44.2 1064.13 40.6C1071.33 36.8667 1079.59 35 1088.93 35ZM1214.44 144.4C1203.24 144.4 1193.24 142.067 1184.44 137.4C1175.77 132.6 1168.97 126.067 1164.04 117.8C1159.1 109.533 1156.64 100.133 1156.64 89.6C1156.64 78.9333 1159.1 69.5333 1164.04 61.4C1168.97 53.1333 1175.77 46.6667 1184.44 42C1193.24 37.3333 1203.24 35 1214.44 35C1224.84 35 1233.97 37.1333 1241.84 41.4C1249.84 45.5333 1255.9 51.6667 1260.04 59.8L1240.84 71C1237.64 65.9333 1233.7 62.2 1229.04 59.8C1224.5 57.4 1219.57 56.2 1214.24 56.2C1208.1 56.2 1202.57 57.5333 1197.64 60.2C1192.7 62.8667 1188.84 66.7333 1186.04 71.8C1183.24 76.7333 1181.84 82.6667 1181.84 89.6C1181.84 96.5333 1183.24 102.533 1186.04 107.6C1188.84 112.533 1192.7 116.333 1197.64 119C1202.57 121.667 1208.1 123 1214.24 123C1219.57 123 1224.5 121.8 1229.04 119.4C1233.7 117 1237.64 113.267 1240.84 108.2L1260.04 119.4C1255.9 127.4 1249.84 133.6 1241.84 138C1233.97 142.267 1224.84 144.4 1214.44 144.4ZM1330.28 144.4C1318.42 144.4 1308.02 142.067 1299.08 137.4C1290.28 132.6 1283.42 126.067 1278.48 117.8C1273.68 109.533 1271.28 100.133 1271.28 89.6C1271.28 78.9333 1273.62 69.5333 1278.28 61.4C1283.08 53.1333 1289.62 46.6667 1297.88 42C1306.28 37.3333 1315.82 35 1326.48 35C1336.88 35 1346.15 37.2667 1354.28 41.8C1362.42 46.3333 1368.82 52.7333 1373.48 61C1378.15 69.2667 1380.48 79 1380.48 90.2C1380.48 91.2667 1380.42 92.4667 1380.28 93.8C1380.28 95.1333 1380.22 96.4 1380.08 97.6H1291.08V81H1366.88L1357.08 86.2C1357.22 80.0667 1355.95 74.6667 1353.28 70C1350.62 65.3333 1346.95 61.6667 1342.28 59C1337.75 56.3333 1332.48 55 1326.48 55C1320.35 55 1314.95 56.3333 1310.28 59C1305.75 61.6667 1302.15 65.4 1299.48 70.2C1296.95 74.8667 1295.68 80.4 1295.68 86.8V90.8C1295.68 97.2 1297.15 102.867 1300.08 107.8C1303.02 112.733 1307.15 116.533 1312.48 119.2C1317.82 121.867 1323.95 123.2 1330.88 123.2C1336.88 123.2 1342.28 122.267 1347.08 120.4C1351.88 118.533 1356.15 115.6 1359.88 111.6L1373.28 127C1368.48 132.6 1362.42 136.933 1355.08 140C1347.88 142.933 1339.62 144.4 1330.28 144.4Z"/>
</mask>
<path d="M76.6 145C65.6667 145 55.6 143.2 46.4 139.6C37.2 136 29.2 131 22.4 124.6C15.6 118.067 10.3333 110.467 6.6 101.8C2.86667 93 1 83.4 1 73C1 62.6 2.86667 53.0667 6.6 44.4C10.3333 35.6 15.6 28 22.4 21.6C29.2 15.0667 37.2 10 46.4 6.4C55.6 2.8 65.6 1 76.4 1C87.3333 1 97.3333 2.8 106.4 6.4C115.6 10 123.6 15.0667 130.4 21.6C137.2 28 142.467 35.6 146.2 44.4C149.933 53.0667 151.8 62.6 151.8 73C151.8 83.4 149.933 93 146.2 101.8C142.467 110.6 137.2 118.2 130.4 124.6C123.6 131 115.6 136 106.4 139.6C97.3333 143.2 87.4 145 76.6 145ZM76.4 122.2C83.4667 122.2 90 121 96 118.6C102 116.2 107.2 112.8 111.6 108.4C116 103.867 119.4 98.6667 121.8 92.8C124.333 86.8 125.6 80.2 125.6 73C125.6 65.8 124.333 59.2667 121.8 53.4C119.4 47.4 116 42.2 111.6 37.8C107.2 33.2667 102 29.8 96 27.4C90 25 83.4667 23.8 76.4 23.8C69.3333 23.8 62.8 25 56.8 27.4C50.9333 29.8 45.7333 33.2667 41.2 37.8C36.8 42.2 33.3333 47.4 30.8 53.4C28.4 59.2667 27.2 65.8 27.2 73C27.2 80.0667 28.4 86.6 30.8 92.6C33.3333 98.6 36.8 103.867 41.2 108.4C45.6 112.8 50.8 116.2 56.8 118.6C62.8 121 69.3333 122.2 76.4 122.2ZM222.159 144.4C213.093 144.4 205.093 142.733 198.159 139.4C191.226 135.933 185.826 130.733 181.959 123.8C178.093 116.733 176.159 107.867 176.159 97.2V36.2H201.159V93.8C201.159 103.4 203.293 110.6 207.559 115.4C211.959 120.067 218.159 122.4 226.159 122.4C232.026 122.4 237.093 121.2 241.359 118.8C245.759 116.4 249.159 112.8 251.559 108C254.093 103.2 255.359 97.2667 255.359 90.2V36.2H280.359V143H256.559V114.2L260.759 123C257.159 129.933 251.893 135.267 244.959 139C238.026 142.6 230.426 144.4 222.159 144.4ZM313.092 143V36.2H336.892V65.6L334.092 57C337.292 49.8 342.292 44.3333 349.092 40.6C356.026 36.8667 364.626 35 374.892 35V58.8C373.826 58.5333 372.826 58.4 371.892 58.4C370.959 58.2667 370.026 58.2 369.092 58.2C359.626 58.2 352.092 61 346.492 66.6C340.892 72.0667 338.092 80.2667 338.092 91.2V143H313.092ZM454.75 143V3H512.35C524.75 3 535.35 5 544.15 9C553.083 13 559.95 18.7333 564.75 26.2C569.55 33.6667 571.95 42.5333 571.95 52.8C571.95 63.0667 569.55 71.9333 564.75 79.4C559.95 86.8667 553.083 92.6 544.15 96.6C535.35 100.6 524.75 102.6 512.35 102.6H469.15L480.75 90.4V143H454.75ZM480.75 93.2L469.15 80.6H511.15C522.617 80.6 531.217 78.2 536.95 73.4C542.817 68.4667 545.75 61.6 545.75 52.8C545.75 43.8667 542.817 37 536.95 32.2C531.217 27.4 522.617 25 511.15 25H469.15L480.75 12.2V93.2ZM594.537 143V36.2H618.338V65.6L615.537 57C618.737 49.8 623.737 44.3333 630.537 40.6C637.471 36.8667 646.071 35 656.338 35V58.8C655.271 58.5333 654.271 58.4 653.338 58.4C652.404 58.2667 651.471 58.2 650.537 58.2C641.071 58.2 633.537 61 627.938 66.6C622.338 72.0667 619.537 80.2667 619.537 91.2V143H594.537ZM726.769 144.4C714.902 144.4 704.502 142.067 695.569 137.4C686.769 132.6 679.902 126.067 674.969 117.8C670.169 109.533 667.769 100.133 667.769 89.6C667.769 78.9333 670.102 69.5333 674.769 61.4C679.569 53.1333 686.102 46.6667 694.369 42C702.769 37.3333 712.302 35 722.969 35C733.369 35 742.635 37.2667 750.769 41.8C758.902 46.3333 765.302 52.7333 769.969 61C774.635 69.2667 776.969 79 776.969 90.2C776.969 91.2667 776.902 92.4667 776.769 93.8C776.769 95.1333 776.702 96.4 776.569 97.6H687.569V81H763.369L753.569 86.2C753.702 80.0667 752.435 74.6667 749.769 70C747.102 65.3333 743.435 61.6667 738.769 59C734.235 56.3333 728.969 55 722.969 55C716.835 55 711.435 56.3333 706.769 59C702.235 61.6667 698.635 65.4 695.969 70.2C693.435 74.8667 692.169 80.4 692.169 86.8V90.8C692.169 97.2 693.635 102.867 696.569 107.8C699.502 112.733 703.635 116.533 708.969 119.2C714.302 121.867 720.435 123.2 727.369 123.2C733.369 123.2 738.769 122.267 743.569 120.4C748.369 118.533 752.635 115.6 756.369 111.6L769.769 127C764.969 132.6 758.902 136.933 751.569 140C744.369 142.933 736.102 144.4 726.769 144.4ZM833.983 144.4C825.049 144.4 816.449 143.267 808.183 141C800.049 138.6 793.583 135.733 788.783 132.4L798.383 113.4C803.183 116.467 808.916 119 815.583 121C822.25 123 828.916 124 835.583 124C843.449 124 849.116 122.933 852.583 120.8C856.183 118.667 857.983 115.8 857.983 112.2C857.983 109.267 856.783 107.067 854.383 105.6C851.983 104 848.849 102.8 844.983 102C841.116 101.2 836.783 100.467 831.983 99.8C827.316 99.1333 822.583 98.2667 817.783 97.2C813.116 96 808.849 94.3333 804.983 92.2C801.116 89.9333 797.983 86.9333 795.583 83.2C793.183 79.4667 791.983 74.5333 791.983 68.4C791.983 61.6 793.916 55.7333 797.783 50.8C801.649 45.7333 807.049 41.8667 813.983 39.2C821.049 36.4 829.383 35 838.983 35C846.183 35 853.45 35.8 860.783 37.4C868.116 39 874.183 41.2667 878.983 44.2L869.383 63.2C864.316 60.1333 859.183 58.0667 853.983 57C848.916 55.8 843.849 55.2 838.783 55.2C831.183 55.2 825.516 56.3333 821.783 58.6C818.183 60.8667 816.383 63.7333 816.383 67.2C816.383 70.4 817.583 72.8 819.983 74.4C822.383 76 825.516 77.2667 829.383 78.2C833.249 79.1333 837.516 79.9333 842.183 80.6C846.983 81.1333 851.716 82 856.383 83.2C861.049 84.4 865.316 86.0667 869.183 88.2C873.183 90.2 876.383 93.0667 878.783 96.8C881.183 100.533 882.383 105.4 882.383 111.4C882.383 118.067 880.383 123.867 876.383 128.8C872.516 133.733 866.983 137.6 859.783 140.4C852.583 143.067 843.983 144.4 833.983 144.4ZM954.112 144.4C942.246 144.4 931.846 142.067 922.912 137.4C914.112 132.6 907.246 126.067 902.312 117.8C897.513 109.533 895.112 100.133 895.112 89.6C895.112 78.9333 897.446 69.5333 902.112 61.4C906.912 53.1333 913.446 46.6667 921.713 42C930.113 37.3333 939.646 35 950.312 35C960.713 35 969.979 37.2667 978.112 41.8C986.246 46.3333 992.646 52.7333 997.312 61C1001.98 69.2667 1004.31 79 1004.31 90.2C1004.31 91.2667 1004.25 92.4667 1004.11 93.8C1004.11 95.1333 1004.05 96.4 1003.91 97.6H914.912V81H990.713L980.912 86.2C981.046 80.0667 979.779 74.6667 977.112 70C974.446 65.3333 970.779 61.6667 966.112 59C961.579 56.3333 956.312 55 950.312 55C944.179 55 938.779 56.3333 934.112 59C929.579 61.6667 925.979 65.4 923.312 70.2C920.779 74.8667 919.513 80.4 919.513 86.8V90.8C919.513 97.2 920.979 102.867 923.912 107.8C926.846 112.733 930.979 116.533 936.312 119.2C941.646 121.867 947.779 123.2 954.713 123.2C960.713 123.2 966.112 122.267 970.912 120.4C975.712 118.533 979.979 115.6 983.713 111.6L997.112 127C992.312 132.6 986.246 136.933 978.912 140C971.712 142.933 963.446 144.4 954.112 144.4ZM1088.93 35C1097.46 35 1105.06 36.6667 1111.73 40C1118.53 43.3333 1123.86 48.4667 1127.73 55.4C1131.59 62.2 1133.53 71 1133.53 81.8V143H1108.53V85C1108.53 75.5333 1106.26 68.4667 1101.73 63.8C1097.33 59.1333 1091.13 56.8 1083.13 56.8C1077.26 56.8 1072.06 58 1067.53 60.4C1062.99 62.8 1059.46 66.4 1056.93 71.2C1054.53 75.8667 1053.33 81.8 1053.33 89V143H1028.33V36.2H1052.13V65L1047.93 56.2C1051.66 49.4 1057.06 44.2 1064.13 40.6C1071.33 36.8667 1079.59 35 1088.93 35ZM1214.44 144.4C1203.24 144.4 1193.24 142.067 1184.44 137.4C1175.77 132.6 1168.97 126.067 1164.04 117.8C1159.1 109.533 1156.64 100.133 1156.64 89.6C1156.64 78.9333 1159.1 69.5333 1164.04 61.4C1168.97 53.1333 1175.77 46.6667 1184.44 42C1193.24 37.3333 1203.24 35 1214.44 35C1224.84 35 1233.97 37.1333 1241.84 41.4C1249.84 45.5333 1255.9 51.6667 1260.04 59.8L1240.84 71C1237.64 65.9333 1233.7 62.2 1229.04 59.8C1224.5 57.4 1219.57 56.2 1214.24 56.2C1208.1 56.2 1202.57 57.5333 1197.64 60.2C1192.7 62.8667 1188.84 66.7333 1186.04 71.8C1183.24 76.7333 1181.84 82.6667 1181.84 89.6C1181.84 96.5333 1183.24 102.533 1186.04 107.6C1188.84 112.533 1192.7 116.333 1197.64 119C1202.57 121.667 1208.1 123 1214.24 123C1219.57 123 1224.5 121.8 1229.04 119.4C1233.7 117 1237.64 113.267 1240.84 108.2L1260.04 119.4C1255.9 127.4 1249.84 133.6 1241.84 138C1233.97 142.267 1224.84 144.4 1214.44 144.4ZM1330.28 144.4C1318.42 144.4 1308.02 142.067 1299.08 137.4C1290.28 132.6 1283.42 126.067 1278.48 117.8C1273.68 109.533 1271.28 100.133 1271.28 89.6C1271.28 78.9333 1273.62 69.5333 1278.28 61.4C1283.08 53.1333 1289.62 46.6667 1297.88 42C1306.28 37.3333 1315.82 35 1326.48 35C1336.88 35 1346.15 37.2667 1354.28 41.8C1362.42 46.3333 1368.82 52.7333 1373.48 61C1378.15 69.2667 1380.48 79 1380.48 90.2C1380.48 91.2667 1380.42 92.4667 1380.28 93.8C1380.28 95.1333 1380.22 96.4 1380.08 97.6H1291.08V81H1366.88L1357.08 86.2C1357.22 80.0667 1355.95 74.6667 1353.28 70C1350.62 65.3333 1346.95 61.6667 1342.28 59C1337.75 56.3333 1332.48 55 1326.48 55C1320.35 55 1314.95 56.3333 1310.28 59C1305.75 61.6667 1302.15 65.4 1299.48 70.2C1296.95 74.8667 1295.68 80.4 1295.68 86.8V90.8C1295.68 97.2 1297.15 102.867 1300.08 107.8C1303.02 112.733 1307.15 116.533 1312.48 119.2C1317.82 121.867 1323.95 123.2 1330.88 123.2C1336.88 123.2 1342.28 122.267 1347.08 120.4C1351.88 118.533 1356.15 115.6 1359.88 111.6L1373.28 127C1368.48 132.6 1362.42 136.933 1355.08 140C1347.88 142.933 1339.62 144.4 1330.28 144.4Z" stroke="#E33A23" stroke-width="2" mask="url(#path-1-outside-1_313_2909)"/>
</svg>
