<svg width="21" height="23" viewBox="0 0 21 23" fill="none" xmlns="http://www.w3.org/2000/svg">
<g clip-path="url(#clip0_19_10)">
<path d="M4.62048 16.4984C7.27213 19.4851 10.8702 21.6123 10.8702 21.6123C14.4682 23.5269 17.4609 23.195 18.8336 22.225C18.8336 22.225 20.6753 20.9997 20.9737 19.7063C21.1613 18.9235 20.3598 18.4299 20.3598 18.4299L16.3866 15.7156L15.3379 17.094C15.3379 17.094 13.752 18.013 12.2599 17.6556C12.2599 17.6556 10.2648 16.9664 7.85191 14.3541C5.439 11.7418 4.69722 9.08699 4.69722 9.08699C4.35617 7.683 5.60952 6.44067 5.60952 6.44067L7.2636 5.64082L4.34764 0.305639C4.34764 0.305639 4.09186 -0.15385 3.20513 0.0503671C2.53157 0.20353 1.98589 0.918292 1.97736 0.926801C1.57663 1.34374 1.47432 1.61603 1.10769 2.20316C0.00781447 3.99006 -0.495231 7.19798 0.630226 10.0826C0.630226 10.0826 1.96031 13.5032 4.62048 16.4984Z" fill="#E33A23"/>
</g>
<defs>
<clipPath id="clip0_19_10">
<rect width="21" height="23" fill="white"/>
</clipPath>
</defs>
</svg>
