<svg width="21" height="23" viewBox="0 0 21 23" fill="none" xmlns="http://www.w3.org/2000/svg">
<g clip-path="url(#clip0_22_124)">
<path d="M4.62051 16.4984C7.27216 19.4851 10.8702 21.6123 10.8702 21.6123C14.4683 23.5269 17.461 23.195 18.8337 22.225C18.8337 22.225 20.6753 20.9997 20.9737 19.7063C21.1613 18.9235 20.3599 18.4299 20.3599 18.4299L16.3867 15.7156L15.3379 17.094C15.3379 17.094 13.7521 18.013 12.26 17.6556C12.26 17.6556 10.2648 16.9664 7.85194 14.3541C5.43903 11.7418 4.69725 9.08699 4.69725 9.08699C4.3562 7.683 5.60955 6.44067 5.60955 6.44067L7.26363 5.64082L4.34767 0.305639C4.34767 0.305639 4.09189 -0.15385 3.20516 0.0503671C2.5316 0.20353 1.98592 0.918292 1.97739 0.926801C1.57666 1.34374 1.47435 1.61603 1.10772 2.20316C0.00784499 3.99006 -0.4952 7.19798 0.630257 10.0826C0.630257 10.0826 1.96034 13.5032 4.62051 16.4984Z" fill="#E33A23"/>
</g>
<defs>
<clipPath id="clip0_22_124">
<rect width="21" height="23" fill="white"/>
</clipPath>
</defs>
</svg>
