<svg width="18" height="18" viewBox="0 0 18 18" fill="none" xmlns="http://www.w3.org/2000/svg">
<g clip-path="url(#clip0_22_26)">
<path d="M17.9999 9.0006C17.9996 13.9561 13.9498 18.0026 8.99311 18C4.03835 17.9974 -0.00297209 13.947 -0.000120562 8.98729C0.00273096 4.04061 4.05451 -0.00261263 9.00641 1.26668e-06C13.9564 0.00261516 18.0001 4.0494 17.9999 9.0006ZM16.1535 9.00535C16.1549 5.04601 12.9715 1.85111 9.0202 1.8466C5.04589 1.84185 1.84909 5.02439 1.84648 8.98848C1.84363 12.9547 5.02759 16.1501 8.98598 16.1534C12.9579 16.1567 16.1521 12.9713 16.1535 9.00535Z" fill="#E33A23"/>
<path d="M8.26085 6.25525C8.26085 5.23345 8.2599 4.21166 8.26133 3.1901C8.2618 2.77591 8.51796 2.48625 8.9274 2.42969C9.31592 2.37599 9.71133 2.69868 9.73675 3.09148C9.74079 3.15469 9.7396 3.21814 9.7396 3.28158C9.73984 5.12319 9.74055 6.96456 9.73723 8.80617C9.73699 8.90574 9.76978 8.94898 9.85913 8.98724C11.3759 9.63787 12.8913 10.2923 14.4066 10.9465C14.7357 11.0886 14.8949 11.4087 14.8153 11.7622C14.7352 12.118 14.4304 12.3817 14.0955 12.3718C14.0036 12.3691 13.9073 12.3432 13.8223 12.3067C12.1204 11.5767 10.4192 10.845 8.71947 10.1103C8.39915 9.97173 8.26489 9.70155 8.26323 9.36863C8.25753 8.33044 8.26085 7.29273 8.26085 6.25525Z" fill="#E33A23"/>
</g>
<defs>
<clipPath id="clip0_22_26">
<rect width="18" height="18" fill="white"/>
</clipPath>
</defs>
</svg>
