<svg width="71" height="69" viewBox="0 0 71 69" fill="none" xmlns="http://www.w3.org/2000/svg">
<path fill-rule="evenodd" clip-rule="evenodd" d="M35.5 0.584752C16.2262 0.58475 0.601689 15.7691 0.601688 34.5C0.601686 53.2309 16.2262 68.4152 35.5 68.4153C54.7738 68.4153 70.3983 53.2309 70.3983 34.5C70.3983 15.7691 54.7738 0.584754 35.5 0.584752ZM35.5 4.52589e-06C15.8939 2.81187e-06 -2.94757e-06 15.4462 -4.61331e-06 34.5C-6.27905e-06 53.5538 15.8939 69 35.5 69C55.1061 69 71 53.5538 71 34.5C71 15.4462 55.1061 6.23991e-06 35.5 4.52589e-06Z" fill="#E33A23"/>
<path d="M31.1233 30.2466L31.1233 31.3501L40.3687 35.2365L40.3687 34.7087L31.1233 38.5951L31.1233 39.6986L40.8493 35.5484L40.8493 34.3968L31.1233 30.2466Z" fill="#E33A23"/>
</svg>
