<svg width="59" height="56" viewBox="0 0 59 56" fill="none" xmlns="http://www.w3.org/2000/svg">
<path d="M31.5703 56C30.1876 56 28.805 56 27.4224 56C26.7426 55.9147 26.0616 55.8392 25.3841 55.744C19.5667 54.9236 14.4175 52.7074 10.0172 48.9991C4.90031 44.6869 1.69028 39.329 0.46088 32.9254C0.273071 31.9452 0.15209 30.952 0 29.9653C0 28.6526 0 27.34 0 26.0273C0.086415 25.3983 0.161308 24.7671 0.259245 24.1392C1.1015 18.7091 3.31488 13.8413 7.16899 9.74356C14.4428 2.00754 23.574 -1.17898 34.3586 0.388571C41.9355 1.49012 48.1112 5.11748 52.8053 10.8746C57.8554 17.0672 59.7888 24.1195 58.7115 31.8676C57.9522 37.3294 55.5994 42.16 51.781 46.3125C47.2194 51.2722 41.5207 54.3767 34.6858 55.5624C33.6535 55.7418 32.6096 55.8556 31.5703 56ZM32.0842 23.2641C32.0553 23.1405 32.0392 23.1055 32.0392 23.0705C32.0369 22.0685 32.0335 21.0665 32.0335 20.0634C32.0346 18.7562 32.5266 18.2902 33.9046 18.288C35.0315 18.2869 36.1583 18.288 37.3048 18.288C37.3048 16.4185 37.3048 14.6092 37.3048 12.7769C35.2331 12.7769 33.2006 12.719 31.1716 12.7901C28.1436 12.8962 25.9141 14.653 25.2297 17.4643C25.0085 18.3755 24.982 19.337 24.9371 20.2778C24.8898 21.2535 24.9267 22.2315 24.9267 23.2685C23.7607 23.2685 22.6776 23.2685 21.5715 23.2685C21.5715 25.197 21.5715 27.0643 21.5715 29.0005C22.6983 29.0005 23.7975 29.0005 24.9636 29.0005C24.9636 34.4339 24.9636 39.7972 24.9636 45.1672C27.3475 45.1672 29.6611 45.1672 32.0312 45.1672C32.0312 39.771 32.0312 34.4043 32.0312 28.9819C33.6488 28.9819 35.2124 28.9819 36.8185 28.9819C37.0259 27.0599 37.2287 25.1905 37.4373 23.2641C35.6203 23.2641 33.862 23.2641 32.0842 23.2641Z" fill="white"/>
</svg>
