<svg width="57" height="56" viewBox="0 0 57 56" fill="none" xmlns="http://www.w3.org/2000/svg">
<path d="M26.4961 0C27.832 0 29.168 0 30.5039 0C31.4001 0.118107 32.2996 0.208875 33.1903 0.35979C38.357 1.23685 42.9693 3.30482 46.9515 6.66542C52.1272 11.0332 55.3557 16.5143 56.5636 23.1228C56.7395 24.0852 56.8564 25.0596 57 26.0274C57 27.3397 57 28.652 57 29.9643C56.9633 30.1218 56.9143 30.2782 56.892 30.4367C56.7618 31.3729 56.6927 32.321 56.5046 33.2462C55.1085 40.1237 51.6284 45.7809 45.993 50.082C39.6684 54.909 32.4622 56.7539 24.5401 55.7238C18.9659 54.9987 14.034 52.7634 9.80133 49.1141C4.78154 44.7868 1.63875 39.3921 0.444199 32.9247C0.262734 31.9437 0.146953 30.9518 0 29.9643C0 28.652 0 27.3397 0 26.0274C0.0823828 25.3986 0.155859 24.7687 0.249375 24.141C1.05873 18.6949 3.24856 13.8536 6.9324 9.70231C11.3588 4.71336 16.8918 1.59445 23.5414 0.430874C24.52 0.25918 25.5108 0.142166 26.4961 0ZM44.7561 27.9958C44.6938 27.9958 44.8185 27.9948 44.7561 27.9958C44.6582 25.3756 44.8029 22.7488 44.6326 20.133C44.519 18.4007 43.9156 16.7953 42.8135 15.4032C40.9187 13.0104 38.2913 12.0962 35.3456 12.0481C30.7845 11.9726 26.2211 11.9912 21.6589 12.0437C19.5347 12.0688 17.5108 12.5763 15.7707 13.87C13.2737 15.7269 12.314 18.3329 12.2639 21.2703C12.1882 25.7507 12.206 30.2344 12.2606 34.7149C12.2862 36.8211 12.8094 38.8257 14.1531 40.5426C16.0457 42.9638 18.6864 43.8955 21.6533 43.9447C26.2144 44.0213 30.7778 44.0027 35.34 43.948C37.4842 43.9229 39.5226 43.4034 41.2716 42.0835C43.7174 40.2375 44.637 37.6675 44.7405 34.7717C44.8196 32.5156 44.7561 30.2552 44.7561 27.9958Z" fill="white"/>
<path d="M14.9948 27.998C15.0827 25.4839 15.1128 22.9697 15.2731 20.4632C15.4702 17.3771 17.6811 15.1134 20.8139 15.0193C25.6478 14.8739 30.4872 14.9034 35.3244 14.9176C36.7194 14.922 38.0909 15.2271 39.2754 16.0309C40.8563 17.1026 41.6579 18.6686 41.718 20.484C41.8505 24.5051 41.8738 28.5306 41.8761 32.555C41.8761 33.8761 41.8126 35.2277 41.531 36.5127C40.9443 39.192 38.9481 40.8849 36.1583 40.9811C32.0291 41.1233 27.8933 41.1255 23.7596 41.1353C22.505 41.1386 21.228 41.0806 19.999 40.8554C17.2325 40.3501 15.4446 38.3292 15.2731 35.5329C15.1172 33.0253 15.0816 30.5111 14.9948 27.998ZM28.4967 19.7666C23.8387 19.7677 20.127 23.4104 20.1226 27.9838C20.117 32.5572 23.8231 36.212 28.4755 36.224C33.1546 36.236 36.8852 32.5747 36.8774 27.9784C36.8685 23.4039 33.1557 19.7655 28.4967 19.7666ZM37.2292 21.3304C38.2958 21.3337 39.1797 20.4785 39.1908 19.4342C39.202 18.3898 38.3325 17.5127 37.2704 17.4941C36.1828 17.4755 35.2821 18.3493 35.2854 19.421C35.2888 20.4709 36.1594 21.3272 37.2292 21.3304Z" fill="white"/>
<path d="M28.5445 22.6395C31.5704 22.6493 33.9684 25.0552 33.9529 28.0658C33.9373 31.0076 31.4903 33.361 28.4566 33.3512C25.434 33.3413 23.0338 30.9321 23.0483 27.9237C23.0627 24.9863 25.512 22.6307 28.5445 22.6395Z" fill="white"/>
</svg>
