<svg width="55" height="56" viewBox="0 0 55 56" fill="none" xmlns="http://www.w3.org/2000/svg">
<path d="M27.4506 1.1471e-06C42.6637 -0.00437368 54.9957 12.5055 55 27.9486C55.0043 43.4814 42.7023 56.0044 27.442 56C12.2805 55.9934 -0.00429575 43.4289 1.12685e-06 27.9398C0.004298 12.547 12.3277 0.00437598 27.4506 1.1471e-06ZM12.9229 38.2076C16.9061 40.769 21.2287 41.504 25.7727 40.5744C34.1215 38.8682 39.8707 31.6541 40.0383 22.7929C40.0512 22.1082 40.2445 21.6707 40.7559 21.2245C41.5572 20.5223 42.2512 19.6955 42.9924 18.9211C42.9365 18.8686 42.8807 18.814 42.8248 18.7615C41.8859 19.0086 40.9492 19.2536 40.0018 19.503C40.8182 18.4202 41.5787 17.4118 42.3371 16.4056C42.2641 16.3356 42.191 16.2678 42.118 16.1978C41.3359 16.5128 40.5475 16.8125 39.7719 17.1471C38.9211 17.5168 38.2723 17.4468 37.4623 16.8015C35.4191 15.1785 33.0967 15.0363 30.815 16.2547C28.5721 17.4512 27.4506 19.4308 27.4635 22.0404C27.4656 22.4669 27.4635 22.8935 27.4635 23.3769C22.2191 23.0007 17.9953 20.7126 14.5879 16.7447C13.0625 19.6736 13.5395 22.1016 16.3174 25.2931C15.3184 25.0371 14.56 24.8403 13.6941 24.6194C13.8574 27.7539 15.5074 29.6876 18.2338 30.9694C17.5119 31.0132 16.7922 31.0569 15.9865 31.1072C16.4012 32.3956 17.093 33.4281 18.1436 34.0777C19.1705 34.7143 20.3285 35.1277 21.4479 35.6505C18.9428 37.536 16.0875 38.3213 12.9229 38.2076Z" fill="white"/>
</svg>
