<svg width="26" height="25" viewBox="0 0 26 25" fill="none" xmlns="http://www.w3.org/2000/svg">
<path d="M25.4372 12.3856C25.4742 19.1693 19.7578 24.7743 12.7769 24.8005C5.75902 24.8275 0.0292013 19.3208 -0.000186712 12.5223C-0.0295747 5.60268 5.59444 0.0386644 12.6585 0.00019026C19.6662 -0.0374653 25.4003 5.51918 25.4372 12.3856ZM13.8071 13.9679C14.6955 13.9679 15.5167 13.9679 16.3698 13.9679C16.5419 12.9062 16.709 11.8764 16.8853 10.786C15.8366 10.786 14.8391 10.786 13.8164 10.786C13.8164 9.91669 13.7887 9.09973 13.8264 8.28686C13.8508 7.76214 14.2043 7.40114 14.693 7.2276C15.0137 7.11381 15.3706 7.07616 15.7157 7.05242C16.1279 7.02377 16.5436 7.04587 16.9659 7.04587C16.9659 6.13722 16.9659 5.28752 16.9659 4.40753C16.112 4.37232 15.2883 4.35759 14.4679 4.30029C12.4973 4.16195 11.0203 5.13608 10.5241 6.99593C10.3721 7.56732 10.3536 8.17881 10.3251 8.77475C10.2923 9.43618 10.3175 10.1009 10.3175 10.8106C9.30908 10.8106 8.36531 10.8106 7.4249 10.8106C7.4249 11.8871 7.4249 12.9144 7.4249 13.9933C8.39974 13.9933 9.34183 13.9933 10.3385 13.9933C10.3385 16.6128 10.3385 19.18 10.3385 21.743C11.5207 21.743 12.645 21.743 13.808 21.743C13.8071 19.1513 13.8071 16.5924 13.8071 13.9679Z" fill="white"/>
<path d="M13.8073 13.9675C13.8073 16.592 13.8073 19.1509 13.8073 21.7409C12.6444 21.7409 11.5192 21.7409 10.3379 21.7409C10.3379 19.1779 10.3379 16.6108 10.3379 13.9913C9.34118 13.9913 8.39908 13.9913 7.42424 13.9913C7.42424 12.9115 7.42424 11.8842 7.42424 10.8086C8.36466 10.8086 9.30843 10.8086 10.3169 10.8086C10.3169 10.0988 10.2917 9.43414 10.3244 8.77271C10.3538 8.17759 10.3714 7.5661 10.5234 6.99389C11.0197 5.13404 12.4966 4.15909 14.4673 4.29825C15.2876 4.35637 16.1113 4.37029 16.9653 4.40549C16.9653 5.28548 16.9653 6.13519 16.9653 7.04383C16.5429 7.04383 16.1273 7.02173 15.715 7.05038C15.3708 7.07412 15.0131 7.11177 14.6923 7.22556C14.2036 7.3991 13.8501 7.76092 13.8258 8.28482C13.788 9.09851 13.8157 9.91465 13.8157 10.784C14.8384 10.784 15.8359 10.784 16.8847 10.784C16.7083 11.8744 16.5412 12.9042 16.3691 13.9659C15.5169 13.9675 14.6957 13.9675 13.8073 13.9675Z" fill="#0A4F8F"/>
</svg>
