<svg width="27" height="25" viewBox="0 0 27 25" fill="none" xmlns="http://www.w3.org/2000/svg">
<path d="M26.0666 12.4198C26.0649 19.2617 20.3771 24.7978 13.3475 24.8003C6.34136 24.8028 0.631695 19.2371 0.631695 12.4059C0.631695 5.55668 6.36067 -0.016336 13.3836 3.59801e-05C20.4031 0.0172265 26.0683 5.56487 26.0666 12.4198ZM13.3517 20.316C14.5826 20.316 15.8144 20.3267 17.0453 20.3136C19.5534 20.2874 21.4594 18.4635 21.4896 16.0167C21.5198 13.6027 21.5182 11.1886 21.4913 8.77459C21.4644 6.34172 19.5206 4.49742 17.031 4.49496C14.5549 4.49251 12.0787 4.49005 9.60258 4.49578C7.17934 4.50151 5.23469 6.40393 5.23049 8.76723C5.22714 11.1264 5.22965 13.4864 5.22965 15.8456C5.22965 18.4668 7.10293 20.3062 9.78395 20.3152C10.9737 20.3193 12.1627 20.316 13.3517 20.316Z" fill="white"/>
<path d="M13.3516 20.3159C12.1627 20.3159 10.9729 20.3192 9.78395 20.3151C7.10209 20.3061 5.22965 18.4667 5.22965 15.8456C5.22965 13.4864 5.22713 11.1263 5.23049 8.76714C5.23385 6.40385 7.17933 4.50143 9.60258 4.4957C12.0787 4.48997 14.5549 4.49242 17.031 4.49488C19.5198 4.49733 21.4636 6.34164 21.4913 8.77451C21.5181 11.1886 21.5198 13.6026 21.4896 16.0167C21.4594 18.4634 19.5534 20.2873 17.0453 20.3135C15.8144 20.3266 14.5834 20.3159 13.3516 20.3159ZM13.3626 18.9194C14.5372 18.9194 15.7119 18.921 16.8866 18.9194C18.7825 18.9161 20.0487 17.6923 20.0529 15.8513C20.058 13.5478 20.0571 11.2434 20.0521 8.93987C20.0487 7.12585 18.7775 5.88813 16.9135 5.88404C14.5507 5.87913 12.187 5.87995 9.82425 5.88404C7.93502 5.88731 6.65875 7.12012 6.65287 8.95542C6.64615 11.259 6.64531 13.5633 6.65287 15.8668C6.65875 17.6792 7.93586 18.9137 9.79738 18.9194C10.9855 18.9227 12.1745 18.9194 13.3626 18.9194Z" fill="#0A4F8F"/>
<path d="M13.3626 18.9201C12.1736 18.9201 10.9855 18.9234 9.79655 18.9193C7.93503 18.9127 6.65791 17.6783 6.65203 15.8667C6.64448 13.5632 6.64448 11.2588 6.65203 8.95531C6.65791 7.12083 7.93419 5.8872 9.82342 5.88393C12.1862 5.87984 14.5498 5.87984 16.9126 5.88393C18.7767 5.88802 20.0479 7.12574 20.0513 8.93976C20.0555 11.2433 20.0563 13.5476 20.0521 15.8512C20.0488 17.693 18.7817 18.9168 16.8858 18.9193C15.7119 18.9217 14.5372 18.9201 13.3626 18.9201ZM13.376 16.7197C15.8068 16.7197 17.8354 14.7494 17.8237 12.4C17.8111 10.0473 15.7816 8.0835 13.3617 8.0835C10.9276 8.0835 8.94094 10.0293 8.94094 12.4139C8.94094 14.8042 10.915 16.7205 13.376 16.7197ZM17.7002 9.08629C18.2259 9.09202 18.6734 8.66553 18.6675 8.16373C18.6616 7.67912 18.2275 7.26081 17.7254 7.25754C17.1872 7.25344 16.759 7.66438 16.7657 8.17928C16.7724 8.68272 17.1822 9.08056 17.7002 9.08629Z" fill="white"/>
<path d="M13.376 16.7194C10.915 16.7194 8.94094 14.8039 8.94094 12.4144C8.9401 10.0298 10.9276 8.08398 13.3617 8.08398C15.7816 8.08398 17.8119 10.0478 17.8237 12.4005C17.8363 14.749 15.8076 16.7194 13.376 16.7194ZM16.2594 12.4013C16.2569 10.8631 14.9537 9.59266 13.3684 9.58284C11.7773 9.57301 10.4464 10.8648 10.449 12.4176C10.4515 13.9812 11.7647 15.2598 13.3642 15.2541C14.9672 15.2492 16.2619 13.973 16.2594 12.4013Z" fill="#0A4F8F"/>
<path d="M17.7002 9.08546C17.1822 9.07973 16.7724 8.68189 16.7657 8.17763C16.759 7.66273 17.1872 7.2518 17.7254 7.25589C18.2275 7.25998 18.6616 7.67829 18.6675 8.16208C18.6734 8.6647 18.2259 9.09119 17.7002 9.08546Z" fill="#0A4F8F"/>
<path d="M16.2594 12.4005C16.2619 13.9722 14.9671 15.2484 13.3642 15.2533C11.7655 15.2582 10.4515 13.9804 10.449 12.4169C10.4464 10.864 11.7773 9.57226 13.3684 9.58209C14.9537 9.59191 16.2569 10.8616 16.2594 12.4005Z" fill="white"/>
</svg>
