<svg width="26" height="25" viewBox="0 0 26 25" fill="none" xmlns="http://www.w3.org/2000/svg">
<path d="M25.731 12.4215C25.7134 19.2764 19.9928 24.8192 12.954 24.8003C5.93862 24.7815 0.274301 19.2159 0.295293 12.3634C0.316284 5.51579 6.02511 -0.0236633 13.0346 7.60171e-05C20.0507 0.0254526 25.7486 5.59929 25.731 12.4215ZM5.5188 17.5787C6.97392 18.3932 8.52477 18.8131 10.194 18.8442C15.1278 18.9359 19.7988 15.2612 19.6141 9.6841C19.6066 9.44998 19.6762 9.31982 19.887 9.19949C20.4177 8.89661 20.8047 8.45866 21.0911 7.90119C20.5612 8.03544 20.0927 8.15414 19.6242 8.27283C20.102 7.74647 20.552 7.2635 20.7695 6.58243C20.2355 6.81 19.7485 7.0081 19.2699 7.22503C18.9877 7.35355 18.787 7.32326 18.5284 7.11533C16.5452 5.51661 13.5375 6.5636 13.1143 8.99893C13.0505 9.36648 13.1051 9.75286 13.1051 10.1638C11.7415 10.2121 10.5467 9.85109 9.4106 9.25924C8.26867 8.66412 7.30475 7.84798 6.40632 6.89022C5.53223 8.60273 5.98565 9.96078 7.41474 11.106C7.3862 11.142 7.35765 11.178 7.32994 11.2132C6.87652 11.0962 6.42311 10.9783 5.95458 10.8563C6.10236 12.3396 6.86141 13.3612 8.33584 13.8647C8.32325 13.8982 8.31065 13.9326 8.2989 13.9662C7.88411 13.9662 7.47016 13.9662 6.99408 13.9662C7.58687 15.253 8.46767 16.0364 9.96058 16.1911C8.63309 17.347 7.08392 17.4616 5.5188 17.5787Z" fill="white"/>
<path d="M5.5188 17.5769C7.08392 17.4606 8.63224 17.346 9.96142 16.191C8.46851 16.0363 7.58771 15.2529 6.99492 13.966C7.47016 13.966 7.88495 13.966 8.29974 13.966C8.31234 13.9325 8.32493 13.8981 8.33669 13.8645C6.86225 13.3619 6.1032 12.3395 5.95542 10.8562C6.42479 10.9781 6.87736 11.0952 7.33078 11.2131C7.35933 11.1771 7.38787 11.141 7.41558 11.1058C5.98648 9.96062 5.53307 8.60256 6.40716 6.89005C7.30475 7.84781 8.26867 8.66396 9.41145 9.25908C10.5475 9.85092 11.7423 10.2119 13.1059 10.1636C13.1059 9.75269 13.0505 9.36549 13.1152 8.99876C13.5392 6.56343 16.5468 5.51644 18.5293 7.11517C18.787 7.32309 18.9877 7.35256 19.2707 7.22486C19.7493 7.00793 20.2371 6.80983 20.7703 6.58226C20.5528 7.26333 20.102 7.74631 19.625 8.27267C20.0936 8.15397 20.5621 8.03527 21.0919 7.90102C20.8056 8.45849 20.4185 8.89562 19.8878 9.19932C19.6771 9.31965 19.6066 9.44981 19.615 9.68393C19.7997 15.261 15.1278 18.9357 10.1948 18.844C8.52561 18.8113 6.97392 18.3914 5.5188 17.5769Z" fill="#0A4F8F"/>
</svg>
