<svg width="26" height="25" viewBox="0 0 26 25" fill="none" xmlns="http://www.w3.org/2000/svg">
<path d="M0.561775 12.5699C0.660015 5.59712 6.39487 0.104319 13.4765 0.198458C20.5255 0.292597 26.1075 5.9311 25.9992 12.8474C25.8925 19.6099 20.1048 25.0929 13.1717 24.9987C6.24122 24.9038 0.615513 19.5174 0.561775 12.5699ZM13.6285 19.4805C13.6285 19.2923 13.6285 19.1449 13.6285 18.9968C13.6285 17.5241 13.6176 16.0514 13.6386 14.5796C13.6428 14.262 13.7083 13.9206 13.8426 13.6333C14.218 12.8335 15.1642 12.4013 16.0467 12.574C16.8847 12.7386 17.4918 13.4589 17.5052 14.3897C17.527 15.9303 17.5128 17.4709 17.5153 19.0115C17.5153 19.1687 17.5287 19.325 17.5354 19.4773C18.5078 19.4773 19.4238 19.4773 20.3365 19.4773C20.3533 19.4085 20.371 19.37 20.371 19.3307C20.3701 17.204 20.4029 15.0765 20.3508 12.9506C20.3223 11.7865 19.6766 10.9147 18.6303 10.363C17.1198 9.56732 14.9862 9.92177 13.8032 11.1366C13.7704 11.1701 13.7309 11.1971 13.6159 11.2937C13.6159 10.8411 13.6159 10.4833 13.6159 10.1231C12.6444 10.1231 11.7284 10.1231 10.7905 10.1231C10.7905 13.2518 10.7905 16.3527 10.7905 19.4805C11.73 19.4805 12.6453 19.4805 13.6285 19.4805ZM6.24037 10.1141C6.24037 13.2584 6.24037 16.3584 6.24037 19.4822C7.19674 19.4822 8.12373 19.4822 9.0675 19.4822C9.0675 16.347 9.0675 13.2379 9.0675 10.1141C8.11533 10.1141 7.19842 10.1141 6.24037 10.1141ZM7.651 5.34417C6.68204 5.33926 5.9255 6.07272 5.92046 7.02148C5.91542 7.97924 6.65684 8.73153 7.61573 8.74135C8.59141 8.75199 9.37733 7.98988 9.37397 7.03539C9.37145 6.08827 8.61828 5.34908 7.651 5.34417Z" fill="white"/>
<path d="M13.6285 19.4808C12.6453 19.4808 11.7301 19.4808 10.7896 19.4808C10.7896 16.3529 10.7896 13.252 10.7896 10.1234C11.7275 10.1234 12.6436 10.1234 13.6151 10.1234C13.6151 10.4835 13.6151 10.8421 13.6151 11.2939C13.731 11.1974 13.7704 11.1703 13.8023 11.1368C14.9862 9.92198 17.119 9.56752 18.6295 10.3632C19.6757 10.9149 20.3214 11.7859 20.35 12.9508C20.402 15.0767 20.3693 17.2042 20.3701 19.3309C20.3701 19.3702 20.3525 19.4095 20.3357 19.4775C19.423 19.4775 18.5069 19.4775 17.5346 19.4775C17.5279 19.3252 17.5144 19.1689 17.5144 19.0117C17.5119 17.4711 17.5262 15.9297 17.5044 14.3899C17.4909 13.4591 16.8847 12.7388 16.0459 12.5742C15.1634 12.4015 14.2171 12.8329 13.8418 13.6335C13.7074 13.9208 13.6419 14.2622 13.6378 14.5798C13.6168 16.0525 13.6285 17.5251 13.6277 18.997C13.6285 19.1451 13.6285 19.2925 13.6285 19.4808Z" fill="#0A4F8F"/>
<path d="M6.24036 10.1133C7.1984 10.1133 8.11615 10.1133 9.06748 10.1133C9.06748 13.2371 9.06748 16.3461 9.06748 19.4813C8.12371 19.4813 7.19589 19.4813 6.24036 19.4813C6.24036 16.3576 6.24036 13.2567 6.24036 10.1133Z" fill="#0A4F8F"/>
<path d="M7.65099 5.34573C8.61744 5.35064 9.37144 6.09065 9.3748 7.03695C9.37816 7.99144 8.59224 8.75355 7.61656 8.74291C6.65767 8.73309 5.91625 7.9808 5.92129 7.02304C5.92549 6.07428 6.68203 5.34082 7.65099 5.34573Z" fill="#0A4F8F"/>
</svg>
