<svg width="335" height="109" viewBox="0 0 335 109" fill="none" xmlns="http://www.w3.org/2000/svg">
<mask id="path-1-outside-1_655_690" maskUnits="userSpaceOnUse" x="-148" y="0" width="483" height="109" fill="black">
<rect fill="white" x="-148" width="483" height="109"/>
<path d="M-102.377 107L-146 7H-125.899L-86.9809 97.4286H-98.5281L-59.1821 7H-40.6495L-84.1298 107H-102.377Z"/>
<path d="M9.36389 107V91.5714L8.36598 88.2857V61.2857C8.36598 56.0476 6.79785 52 3.66156 49.1429C0.525284 46.1905 -4.22665 44.7143 -10.5943 44.7143C-14.871 44.7143 -19.1002 45.381 -23.2819 46.7143C-27.3686 48.0476 -30.8375 49.9048 -33.6887 52.2857L-40.674 39.2857C-36.5874 36.1429 -31.7404 33.8095 -26.1331 32.2857C-20.4308 30.6667 -14.5384 29.8571 -8.45587 29.8571C2.56862 29.8571 11.0746 32.5238 17.062 37.8571C23.1445 43.0952 26.1858 51.2381 26.1858 62.2857V107H9.36389ZM-14.5859 108C-20.2882 108 -25.2777 107.048 -29.5545 105.143C-33.8312 103.143 -37.1576 100.429 -39.5336 97C-41.8145 93.4762 -42.955 89.5238 -42.955 85.1429C-42.955 80.8571 -41.957 77 -39.9612 73.5714C-37.8704 70.1429 -34.4965 67.4286 -29.8396 65.4286C-25.1827 63.4286 -19.0052 62.4286 -11.307 62.4286H10.7895V74.2857H-10.024C-16.1065 74.2857 -20.1932 75.2857 -22.284 77.2857C-24.3749 79.1905 -25.4203 81.5714 -25.4203 84.4286C-25.4203 87.6667 -24.1373 90.2381 -21.5712 92.1429C-19.0052 94.0476 -15.4412 95 -10.8794 95C-6.50758 95 -2.61099 94 0.810394 92C4.32683 90 6.84537 87.0476 8.36598 83.1429L11.3597 93.8571C9.649 98.3333 6.56026 101.81 2.09344 104.286C-2.27835 106.762 -7.83812 108 -14.5859 108Z"/>
<path d="M49.0552 107V1H66.875V107H49.0552Z"/>
<path d="M122.482 108C116.019 108 110.317 106.81 105.375 104.429C100.433 101.952 96.5835 98.2381 93.8274 93.2857C91.0712 88.2381 89.6932 81.9048 89.6932 74.2857V30.7143H107.513V71.8571C107.513 78.7143 109.034 83.8571 112.075 87.2857C115.211 90.6191 119.63 92.2857 125.333 92.2857C129.514 92.2857 133.126 91.4286 136.167 89.7143C139.303 88 141.727 85.4286 143.438 82C145.243 78.5714 146.146 74.3333 146.146 69.2857V30.7143H163.966V107H147.002V86.4286L149.995 92.7143C147.429 97.6667 143.675 101.476 138.733 104.143C133.791 106.714 128.374 108 122.482 108Z"/>
<path d="M223.08 108C214.621 108 207.208 106.333 200.841 103C194.568 99.5714 189.674 94.9048 186.157 89C182.736 83.0952 181.025 76.381 181.025 68.8571C181.025 61.2381 182.688 54.5238 186.015 48.7143C189.436 42.8095 194.093 38.1905 199.985 34.8572C205.973 31.5238 212.768 29.8571 220.371 29.8571C227.784 29.8571 234.389 31.4762 240.187 34.7143C245.984 37.9524 250.546 42.5238 253.872 48.4286C257.199 54.3333 258.862 61.2857 258.862 69.2857C258.862 70.0476 258.814 70.9048 258.719 71.8571C258.719 72.8095 258.672 73.7143 258.577 74.5714H195.138V62.7143H249.168L242.183 66.4286C242.278 62.0476 241.375 58.1905 239.474 54.8572C237.573 51.5238 234.96 48.9048 231.633 47C228.402 45.0952 224.648 44.1429 220.371 44.1429C215.999 44.1429 212.15 45.0952 208.824 47C205.593 48.9048 203.027 51.5714 201.126 55C199.32 58.3333 198.417 62.2857 198.417 66.8571V69.7143C198.417 74.2857 199.463 78.3333 201.553 81.8571C203.644 85.381 206.591 88.0952 210.392 90C214.194 91.9048 218.565 92.8571 223.507 92.8571C227.784 92.8571 231.633 92.1905 235.055 90.8571C238.476 89.5238 241.517 87.4286 244.178 84.5714L253.73 95.5714C250.308 99.5714 245.984 102.667 240.757 104.857C235.625 106.952 229.732 108 223.08 108Z"/>
<path d="M299.501 108C293.133 108 287.003 107.19 281.111 105.571C275.314 103.857 270.704 101.81 267.283 99.4286L274.126 85.8571C277.547 88.0476 281.634 89.8571 286.386 91.2857C291.138 92.7143 295.889 93.4286 300.641 93.4286C306.249 93.4286 310.288 92.6667 312.759 91.1429C315.325 89.619 316.608 87.5714 316.608 85C316.608 82.9048 315.753 81.3333 314.042 80.2857C312.331 79.1429 310.098 78.2857 307.342 77.7143C304.586 77.1429 301.497 76.6191 298.075 76.1429C294.749 75.6667 291.375 75.0476 287.954 74.2857C284.627 73.4286 281.586 72.2381 278.83 70.7143C276.074 69.0952 273.84 66.9524 272.13 64.2857C270.419 61.6191 269.564 58.0952 269.564 53.7143C269.564 48.8571 270.942 44.6667 273.698 41.1429C276.454 37.5238 280.303 34.7619 285.245 32.8571C290.282 30.8571 296.222 29.8571 303.065 29.8571C308.197 29.8571 313.377 30.4286 318.604 31.5714C323.831 32.7143 328.155 34.3333 331.577 36.4286L324.734 50C321.122 47.8095 317.463 46.3333 313.757 45.5714C310.145 44.7143 306.534 44.2857 302.922 44.2857C297.505 44.2857 293.466 45.0952 290.805 46.7143C288.239 48.3333 286.956 50.381 286.956 52.8572C286.956 55.1429 287.811 56.8571 289.522 58C291.233 59.1429 293.466 60.0476 296.222 60.7143C298.978 61.381 302.019 61.9524 305.346 62.4286C308.767 62.8095 312.141 63.4286 315.467 64.2857C318.794 65.1429 321.835 66.3333 324.591 67.8571C327.442 69.2857 329.723 71.3333 331.434 74C333.145 76.6667 334 80.1429 334 84.4286C334 89.1905 332.574 93.3333 329.723 96.8571C326.967 100.381 323.023 103.143 317.891 105.143C312.759 107.048 306.629 108 299.501 108Z"/>
</mask>
<path d="M-102.377 107L-146 7H-125.899L-86.9809 97.4286H-98.5281L-59.1821 7H-40.6495L-84.1298 107H-102.377Z" stroke="#0A4F8F" stroke-width="2" mask="url(#path-1-outside-1_655_690)"/>
<path d="M9.36389 107V91.5714L8.36598 88.2857V61.2857C8.36598 56.0476 6.79785 52 3.66156 49.1429C0.525284 46.1905 -4.22665 44.7143 -10.5943 44.7143C-14.871 44.7143 -19.1002 45.381 -23.2819 46.7143C-27.3686 48.0476 -30.8375 49.9048 -33.6887 52.2857L-40.674 39.2857C-36.5874 36.1429 -31.7404 33.8095 -26.1331 32.2857C-20.4308 30.6667 -14.5384 29.8571 -8.45587 29.8571C2.56862 29.8571 11.0746 32.5238 17.062 37.8571C23.1445 43.0952 26.1858 51.2381 26.1858 62.2857V107H9.36389ZM-14.5859 108C-20.2882 108 -25.2777 107.048 -29.5545 105.143C-33.8312 103.143 -37.1576 100.429 -39.5336 97C-41.8145 93.4762 -42.955 89.5238 -42.955 85.1429C-42.955 80.8571 -41.957 77 -39.9612 73.5714C-37.8704 70.1429 -34.4965 67.4286 -29.8396 65.4286C-25.1827 63.4286 -19.0052 62.4286 -11.307 62.4286H10.7895V74.2857H-10.024C-16.1065 74.2857 -20.1932 75.2857 -22.284 77.2857C-24.3749 79.1905 -25.4203 81.5714 -25.4203 84.4286C-25.4203 87.6667 -24.1373 90.2381 -21.5712 92.1429C-19.0052 94.0476 -15.4412 95 -10.8794 95C-6.50758 95 -2.61099 94 0.810394 92C4.32683 90 6.84537 87.0476 8.36598 83.1429L11.3597 93.8571C9.649 98.3333 6.56026 101.81 2.09344 104.286C-2.27835 106.762 -7.83812 108 -14.5859 108Z" stroke="#0A4F8F" stroke-width="2" mask="url(#path-1-outside-1_655_690)"/>
<path d="M49.0552 107V1H66.875V107H49.0552Z" stroke="#0A4F8F" stroke-width="2" mask="url(#path-1-outside-1_655_690)"/>
<path d="M122.482 108C116.019 108 110.317 106.81 105.375 104.429C100.433 101.952 96.5835 98.2381 93.8274 93.2857C91.0712 88.2381 89.6932 81.9048 89.6932 74.2857V30.7143H107.513V71.8571C107.513 78.7143 109.034 83.8571 112.075 87.2857C115.211 90.6191 119.63 92.2857 125.333 92.2857C129.514 92.2857 133.126 91.4286 136.167 89.7143C139.303 88 141.727 85.4286 143.438 82C145.243 78.5714 146.146 74.3333 146.146 69.2857V30.7143H163.966V107H147.002V86.4286L149.995 92.7143C147.429 97.6667 143.675 101.476 138.733 104.143C133.791 106.714 128.374 108 122.482 108Z" stroke="#0A4F8F" stroke-width="2" mask="url(#path-1-outside-1_655_690)"/>
<path d="M223.08 108C214.621 108 207.208 106.333 200.841 103C194.568 99.5714 189.674 94.9048 186.157 89C182.736 83.0952 181.025 76.381 181.025 68.8571C181.025 61.2381 182.688 54.5238 186.015 48.7143C189.436 42.8095 194.093 38.1905 199.985 34.8572C205.973 31.5238 212.768 29.8571 220.371 29.8571C227.784 29.8571 234.389 31.4762 240.187 34.7143C245.984 37.9524 250.546 42.5238 253.872 48.4286C257.199 54.3333 258.862 61.2857 258.862 69.2857C258.862 70.0476 258.814 70.9048 258.719 71.8571C258.719 72.8095 258.672 73.7143 258.577 74.5714H195.138V62.7143H249.168L242.183 66.4286C242.278 62.0476 241.375 58.1905 239.474 54.8572C237.573 51.5238 234.96 48.9048 231.633 47C228.402 45.0952 224.648 44.1429 220.371 44.1429C215.999 44.1429 212.15 45.0952 208.824 47C205.593 48.9048 203.027 51.5714 201.126 55C199.32 58.3333 198.417 62.2857 198.417 66.8571V69.7143C198.417 74.2857 199.463 78.3333 201.553 81.8571C203.644 85.381 206.591 88.0952 210.392 90C214.194 91.9048 218.565 92.8571 223.507 92.8571C227.784 92.8571 231.633 92.1905 235.055 90.8571C238.476 89.5238 241.517 87.4286 244.178 84.5714L253.73 95.5714C250.308 99.5714 245.984 102.667 240.757 104.857C235.625 106.952 229.732 108 223.08 108Z" stroke="#0A4F8F" stroke-width="2" mask="url(#path-1-outside-1_655_690)"/>
<path d="M299.501 108C293.133 108 287.003 107.19 281.111 105.571C275.314 103.857 270.704 101.81 267.283 99.4286L274.126 85.8571C277.547 88.0476 281.634 89.8571 286.386 91.2857C291.138 92.7143 295.889 93.4286 300.641 93.4286C306.249 93.4286 310.288 92.6667 312.759 91.1429C315.325 89.619 316.608 87.5714 316.608 85C316.608 82.9048 315.753 81.3333 314.042 80.2857C312.331 79.1429 310.098 78.2857 307.342 77.7143C304.586 77.1429 301.497 76.6191 298.075 76.1429C294.749 75.6667 291.375 75.0476 287.954 74.2857C284.627 73.4286 281.586 72.2381 278.83 70.7143C276.074 69.0952 273.84 66.9524 272.13 64.2857C270.419 61.6191 269.564 58.0952 269.564 53.7143C269.564 48.8571 270.942 44.6667 273.698 41.1429C276.454 37.5238 280.303 34.7619 285.245 32.8571C290.282 30.8571 296.222 29.8571 303.065 29.8571C308.197 29.8571 313.377 30.4286 318.604 31.5714C323.831 32.7143 328.155 34.3333 331.577 36.4286L324.734 50C321.122 47.8095 317.463 46.3333 313.757 45.5714C310.145 44.7143 306.534 44.2857 302.922 44.2857C297.505 44.2857 293.466 45.0952 290.805 46.7143C288.239 48.3333 286.956 50.381 286.956 52.8572C286.956 55.1429 287.811 56.8571 289.522 58C291.233 59.1429 293.466 60.0476 296.222 60.7143C298.978 61.381 302.019 61.9524 305.346 62.4286C308.767 62.8095 312.141 63.4286 315.467 64.2857C318.794 65.1429 321.835 66.3333 324.591 67.8571C327.442 69.2857 329.723 71.3333 331.434 74C333.145 76.6667 334 80.1429 334 84.4286C334 89.1905 332.574 93.3333 329.723 96.8571C326.967 100.381 323.023 103.143 317.891 105.143C312.759 107.048 306.629 108 299.501 108Z" stroke="#0A4F8F" stroke-width="2" mask="url(#path-1-outside-1_655_690)"/>
</svg>
