<svg width="634" height="160" viewBox="0 0 634 160" fill="none" xmlns="http://www.w3.org/2000/svg">
<mask id="path-1-outside-1_607_525" maskUnits="userSpaceOnUse" x="-78" y="0" width="712" height="160" fill="black">
<rect fill="white" x="-78" width="712" height="160"/>
<path d="M-11.5655 157.523L-76 9.85981H-46.3096L11.1761 143.39H-5.88009L52.2373 9.85981H79.6114L15.3875 157.523H-11.5655Z"/>
<path d="M153.485 157.523V134.741L152.011 129.889V90.02C152.011 82.2853 149.695 76.3084 145.063 72.0895C140.43 67.7299 133.411 65.5501 124.006 65.5501C117.688 65.5501 111.442 66.5345 105.265 68.5033C99.2285 70.4722 94.1046 73.2145 89.8932 76.7303L79.5752 57.534C85.6116 52.8932 92.771 49.4477 101.053 47.1976C109.476 44.8069 118.18 43.6115 127.164 43.6115C143.448 43.6115 156.012 47.5492 164.856 55.4246C173.841 63.1593 178.333 75.1834 178.333 91.4967V157.523H153.485ZM118.11 159C109.687 159 102.317 157.594 95.9997 154.781C89.6826 151.828 84.7693 147.82 81.2598 142.757C77.8907 137.554 76.2061 131.717 76.2061 125.248C76.2061 118.92 77.6801 113.224 80.6281 108.162C83.7165 103.099 88.7 99.0908 95.5786 96.1375C102.457 93.1843 111.582 91.7076 122.953 91.7076H155.591V109.216H124.848C115.864 109.216 109.827 110.693 106.739 113.646C103.65 116.459 102.106 119.975 102.106 124.194C102.106 128.975 104.001 132.772 107.792 135.585C111.582 138.397 116.846 139.804 123.584 139.804C130.042 139.804 135.798 138.327 140.851 135.374C146.045 132.421 149.765 128.061 152.011 122.295L156.433 138.116C153.907 144.726 149.344 149.859 142.746 153.515C136.289 157.172 128.077 159 118.11 159Z"/>
<path d="M212.113 157.523V1H238.434V157.523H212.113Z"/>
<path d="M320.57 159C311.024 159 302.601 157.242 295.301 153.726C288.001 150.07 282.316 144.585 278.245 137.272C274.174 129.819 272.138 120.467 272.138 109.216V44.8772H298.46V105.63C298.46 115.756 300.706 123.35 305.198 128.413C309.831 133.335 316.358 135.796 324.781 135.796C330.958 135.796 336.292 134.53 340.784 131.999C345.417 129.467 348.997 125.67 351.523 120.607C354.191 115.545 355.524 109.287 355.524 101.833V44.8772H381.846V157.523H356.788V127.147L361.21 136.429C357.419 143.741 351.874 149.367 344.575 153.304C337.275 157.101 329.273 159 320.57 159Z"/>
<path d="M469.162 159C456.668 159 445.718 156.539 436.313 151.617C427.047 146.554 419.818 139.663 414.624 130.944C409.57 122.225 407.043 112.31 407.043 101.2C407.043 89.9497 409.5 80.0352 414.413 71.4566C419.467 62.7374 426.346 55.9168 435.049 50.9947C443.893 46.0726 453.93 43.6115 465.161 43.6115C476.11 43.6115 485.867 46.0022 494.43 50.7837C502.993 55.5652 509.731 62.3155 514.645 71.0347C519.558 79.7539 522.015 90.02 522.015 101.833C522.015 102.958 521.944 104.224 521.804 105.63C521.804 107.037 521.734 108.373 521.594 109.638H427.89V92.1295H507.696L497.378 97.6142C497.518 91.1451 496.185 85.4495 493.377 80.5274C490.57 75.6053 486.709 71.7379 481.796 68.9252C477.023 66.1126 471.478 64.7063 465.161 64.7063C458.703 64.7063 453.018 66.1126 448.105 68.9252C443.332 71.7379 439.541 75.6756 436.734 80.7383C434.067 85.6604 432.733 91.4967 432.733 98.247V102.466C432.733 109.216 434.277 115.193 437.365 120.397C440.454 125.6 444.806 129.608 450.421 132.421C456.036 135.233 462.494 136.64 469.793 136.64C476.11 136.64 481.796 135.655 486.849 133.686C491.903 131.717 496.395 128.624 500.326 124.405L514.434 140.648C509.38 146.554 502.993 151.125 495.272 154.359C487.692 157.453 478.988 159 469.162 159Z"/>
<path d="M582.042 159C572.637 159 563.582 157.805 554.878 155.414C546.315 152.883 539.507 149.859 534.453 146.343L544.561 126.303C549.614 129.538 555.651 132.21 562.67 134.319C569.689 136.429 576.708 137.483 583.727 137.483C592.009 137.483 597.975 136.358 601.625 134.108C605.415 131.858 607.31 128.834 607.31 125.037C607.31 121.943 606.047 119.623 603.52 118.076C600.993 116.389 597.694 115.123 593.623 114.279C589.552 113.435 584.99 112.662 579.936 111.959C575.023 111.255 570.04 110.341 564.986 109.216C560.073 107.951 555.58 106.193 551.509 103.943C547.438 101.552 544.139 98.3876 541.613 94.4499C539.086 90.5122 537.822 85.3089 537.822 78.8398C537.822 71.6676 539.858 65.4798 543.929 60.2764C548 54.9324 553.685 50.854 560.985 48.0414C568.425 45.0881 577.199 43.6115 587.306 43.6115C594.887 43.6115 602.538 44.4553 610.258 46.1429C617.979 47.8304 624.367 50.2212 629.42 53.3151L619.313 73.3551C613.979 70.1206 608.574 67.9408 603.099 66.8158C597.765 65.5501 592.43 64.9172 587.096 64.9172C579.094 64.9172 573.128 66.1126 569.197 68.5033C565.407 70.8941 563.512 73.9177 563.512 77.5741C563.512 80.9493 564.775 83.4806 567.302 85.1682C569.829 86.8558 573.128 88.1918 577.199 89.1762C581.27 90.1607 585.762 91.0045 590.675 91.7076C595.729 92.2701 600.713 93.1843 605.626 94.4499C610.539 95.7156 615.031 97.4735 619.102 99.7236C623.314 101.833 626.683 104.857 629.21 108.794C631.737 112.732 633 117.865 633 124.194C633 131.225 630.894 137.343 626.683 142.546C622.612 147.749 616.786 151.828 609.206 154.781C601.625 157.594 592.571 159 582.042 159Z"/>
</mask>
<path d="M-11.5655 157.523L-76 9.85981H-46.3096L11.1761 143.39H-5.88009L52.2373 9.85981H79.6114L15.3875 157.523H-11.5655Z" stroke="#0A4F8F" stroke-width="2" mask="url(#path-1-outside-1_607_525)"/>
<path d="M153.485 157.523V134.741L152.011 129.889V90.02C152.011 82.2853 149.695 76.3084 145.063 72.0895C140.43 67.7299 133.411 65.5501 124.006 65.5501C117.688 65.5501 111.442 66.5345 105.265 68.5033C99.2285 70.4722 94.1046 73.2145 89.8932 76.7303L79.5752 57.534C85.6116 52.8932 92.771 49.4477 101.053 47.1976C109.476 44.8069 118.18 43.6115 127.164 43.6115C143.448 43.6115 156.012 47.5492 164.856 55.4246C173.841 63.1593 178.333 75.1834 178.333 91.4967V157.523H153.485ZM118.11 159C109.687 159 102.317 157.594 95.9997 154.781C89.6826 151.828 84.7693 147.82 81.2598 142.757C77.8907 137.554 76.2061 131.717 76.2061 125.248C76.2061 118.92 77.6801 113.224 80.6281 108.162C83.7165 103.099 88.7 99.0908 95.5786 96.1375C102.457 93.1843 111.582 91.7076 122.953 91.7076H155.591V109.216H124.848C115.864 109.216 109.827 110.693 106.739 113.646C103.65 116.459 102.106 119.975 102.106 124.194C102.106 128.975 104.001 132.772 107.792 135.585C111.582 138.397 116.846 139.804 123.584 139.804C130.042 139.804 135.798 138.327 140.851 135.374C146.045 132.421 149.765 128.061 152.011 122.295L156.433 138.116C153.907 144.726 149.344 149.859 142.746 153.515C136.289 157.172 128.077 159 118.11 159Z" stroke="#0A4F8F" stroke-width="2" mask="url(#path-1-outside-1_607_525)"/>
<path d="M212.113 157.523V1H238.434V157.523H212.113Z" stroke="#0A4F8F" stroke-width="2" mask="url(#path-1-outside-1_607_525)"/>
<path d="M320.57 159C311.024 159 302.601 157.242 295.301 153.726C288.001 150.07 282.316 144.585 278.245 137.272C274.174 129.819 272.138 120.467 272.138 109.216V44.8772H298.46V105.63C298.46 115.756 300.706 123.35 305.198 128.413C309.831 133.335 316.358 135.796 324.781 135.796C330.958 135.796 336.292 134.53 340.784 131.999C345.417 129.467 348.997 125.67 351.523 120.607C354.191 115.545 355.524 109.287 355.524 101.833V44.8772H381.846V157.523H356.788V127.147L361.21 136.429C357.419 143.741 351.874 149.367 344.575 153.304C337.275 157.101 329.273 159 320.57 159Z" stroke="#0A4F8F" stroke-width="2" mask="url(#path-1-outside-1_607_525)"/>
<path d="M469.162 159C456.668 159 445.718 156.539 436.313 151.617C427.047 146.554 419.818 139.663 414.624 130.944C409.57 122.225 407.043 112.31 407.043 101.2C407.043 89.9497 409.5 80.0352 414.413 71.4566C419.467 62.7374 426.346 55.9168 435.049 50.9947C443.893 46.0726 453.93 43.6115 465.161 43.6115C476.11 43.6115 485.867 46.0022 494.43 50.7837C502.993 55.5652 509.731 62.3155 514.645 71.0347C519.558 79.7539 522.015 90.02 522.015 101.833C522.015 102.958 521.944 104.224 521.804 105.63C521.804 107.037 521.734 108.373 521.594 109.638H427.89V92.1295H507.696L497.378 97.6142C497.518 91.1451 496.185 85.4495 493.377 80.5274C490.57 75.6053 486.709 71.7379 481.796 68.9252C477.023 66.1126 471.478 64.7063 465.161 64.7063C458.703 64.7063 453.018 66.1126 448.105 68.9252C443.332 71.7379 439.541 75.6756 436.734 80.7383C434.067 85.6604 432.733 91.4967 432.733 98.247V102.466C432.733 109.216 434.277 115.193 437.365 120.397C440.454 125.6 444.806 129.608 450.421 132.421C456.036 135.233 462.494 136.64 469.793 136.64C476.11 136.64 481.796 135.655 486.849 133.686C491.903 131.717 496.395 128.624 500.326 124.405L514.434 140.648C509.38 146.554 502.993 151.125 495.272 154.359C487.692 157.453 478.988 159 469.162 159Z" stroke="#0A4F8F" stroke-width="2" mask="url(#path-1-outside-1_607_525)"/>
<path d="M582.042 159C572.637 159 563.582 157.805 554.878 155.414C546.315 152.883 539.507 149.859 534.453 146.343L544.561 126.303C549.614 129.538 555.651 132.21 562.67 134.319C569.689 136.429 576.708 137.483 583.727 137.483C592.009 137.483 597.975 136.358 601.625 134.108C605.415 131.858 607.31 128.834 607.31 125.037C607.31 121.943 606.047 119.623 603.52 118.076C600.993 116.389 597.694 115.123 593.623 114.279C589.552 113.435 584.99 112.662 579.936 111.959C575.023 111.255 570.04 110.341 564.986 109.216C560.073 107.951 555.58 106.193 551.509 103.943C547.438 101.552 544.139 98.3876 541.613 94.4499C539.086 90.5122 537.822 85.3089 537.822 78.8398C537.822 71.6676 539.858 65.4798 543.929 60.2764C548 54.9324 553.685 50.854 560.985 48.0414C568.425 45.0881 577.199 43.6115 587.306 43.6115C594.887 43.6115 602.538 44.4553 610.258 46.1429C617.979 47.8304 624.367 50.2212 629.42 53.3151L619.313 73.3551C613.979 70.1206 608.574 67.9408 603.099 66.8158C597.765 65.5501 592.43 64.9172 587.096 64.9172C579.094 64.9172 573.128 66.1126 569.197 68.5033C565.407 70.8941 563.512 73.9177 563.512 77.5741C563.512 80.9493 564.775 83.4806 567.302 85.1682C569.829 86.8558 573.128 88.1918 577.199 89.1762C581.27 90.1607 585.762 91.0045 590.675 91.7076C595.729 92.2701 600.713 93.1843 605.626 94.4499C610.539 95.7156 615.031 97.4735 619.102 99.7236C623.314 101.833 626.683 104.857 629.21 108.794C631.737 112.732 633 117.865 633 124.194C633 131.225 630.894 137.343 626.683 142.546C622.612 147.749 616.786 151.828 609.206 154.781C601.625 157.594 592.571 159 582.042 159Z" stroke="#0A4F8F" stroke-width="2" mask="url(#path-1-outside-1_607_525)"/>
</svg>
