<svg width="42" height="42" viewBox="0 0 42 42" fill="none" xmlns="http://www.w3.org/2000/svg">
<path d="M39.5607 21.11C39.5607 31.3002 31.2999 39.5609 21.1098 39.5609C10.9197 39.5609 2.65894 31.3002 2.65894 21.11C2.65894 10.9199 10.9197 2.65918 21.1098 2.65918C31.2999 2.65918 39.5607 10.9199 39.5607 21.11Z" fill="white"/>
<path d="M4.74564 37.4742L7.052 30.5551L14.0809 35.9366L4.74564 37.4742Z" fill="white"/>
<path d="M21.0264 1.00114L21.0308 1.00107C30.8248 0.896487 39.5397 8.38638 40.8328 18.4155L39.841 18.5433L40.8328 18.4155C42.2442 29.3646 34.5733 39.3713 23.578 40.8241L23.5779 40.8242C19.6455 41.3432 15.8828 40.7041 12.3036 39.0277L12.303 39.0275C12.1468 38.9542 11.855 38.9259 11.6592 38.9757C10.1727 39.3585 8.70149 39.7758 7.21669 40.197C6.64393 40.3595 6.06915 40.5225 5.49069 40.6844L21.0264 1.00114ZM21.0264 1.00114C14.5744 1.09874 9.20752 3.64515 5.22088 8.7551L21.0264 1.00114ZM2.34548 37.1707C2.00394 37.9105 1.87974 38.6312 2.4194 39.3267C2.96646 40.031 3.7146 40.0473 4.50117 39.8919M2.34548 37.1707L5.48919 40.6848C5.22457 40.7592 4.95809 40.8213 4.69496 40.873C4.69463 40.8731 4.6943 40.8731 4.69397 40.8732L4.50117 39.8919M2.34548 37.1707L2.34545 37.1706L2.34548 37.1707ZM4.50117 39.8919C4.74217 39.8446 4.98318 39.7884 5.21974 39.7218L4.50117 39.8919ZM11.9503 20.8681L11.9502 20.8678C11.0286 19.2132 10.2978 17.2537 10.884 15.0313C11.2488 13.6466 12.0545 12.5245 13.2968 11.7675L11.9503 20.8681ZM11.9503 20.8681C13.8518 24.2795 16.6362 26.7963 19.8915 28.7327C21.7361 29.8305 23.7814 30.7035 26.1255 30.7595C28.1752 30.834 29.829 29.9837 30.9109 28.2097C31.3663 27.4658 31.5993 26.6421 31.4711 25.8059C31.3418 24.9623 30.8663 24.245 30.1676 23.6841L30.1674 23.6839C29.547 23.1861 28.8372 22.8019 28.1461 22.5139L28.1456 22.5137C27.2358 22.1351 26.3222 21.8585 25.429 22.1449C24.5462 22.428 23.9523 23.1775 23.4135 23.9949L23.4125 23.9964C23.4083 24.0029 23.3998 24.0152 23.3883 24.032C23.3466 24.0928 23.2653 24.2116 23.2026 24.3158M11.9503 20.8681L23.2026 24.3158M16.852 12.0694L16.8529 12.0701C18.2075 13.2399 18.8168 14.7689 19.0501 16.3542L19.0502 16.3547C19.2329 17.6009 18.6263 18.5499 18.0757 19.2217L18.0755 19.2219C17.9201 19.4113 17.8285 19.5309 17.7727 19.6152C17.8204 19.7055 17.9003 19.8344 18.0371 20.0401C19.3317 21.9844 21.0405 23.4027 23.1963 24.3132L16.852 12.0694ZM16.852 12.0694C16.3601 11.6456 15.7843 11.3537 15.1329 11.2958M16.852 12.0694L15.1329 11.2958M23.2026 24.3158C23.2009 24.3151 23.1991 24.3144 23.1973 24.3136L23.2026 24.3158ZM15.1329 11.2958C14.4797 11.2378 13.8591 11.4248 13.2971 11.7673L15.1329 11.2958ZM10.6443 33.5457L10.6442 33.5458C9.97824 33.7762 9.31138 33.9594 8.58658 34.1478C8.79092 33.6906 8.99178 33.2609 9.21585 32.8339C9.5388 32.22 9.70311 31.586 9.64924 30.9219C9.59603 30.266 9.33749 29.6751 8.97548 29.1308L8.97534 29.1306C3.14514 20.3682 8.00685 8.71219 18.3124 6.69063C26.3723 5.10993 34.321 10.8131 35.3913 18.9359C36.4234 26.7738 31.389 33.8283 23.6965 35.29L23.6965 35.29C20.414 35.914 17.2668 35.4857 14.3286 33.8968C13.1626 33.2656 11.9904 33.0801 10.6443 33.5457ZM5.22084 8.75515C0.107194 15.3089 -0.359374 23.9461 3.81833 31.1801L5.22084 8.75515Z" fill="#5CBB5B" stroke="white" stroke-width="2"/>
</svg>
