<svg width="18" height="18" viewBox="0 0 18 18" fill="none" xmlns="http://www.w3.org/2000/svg">
<path d="M17.9999 9.0006C17.9996 13.9561 13.9498 18.0026 8.99311 18C4.03835 17.9974 -0.00297209 13.947 -0.000120562 8.98729C0.00273096 4.04061 4.05451 -0.00261263 9.00641 1.26668e-06C13.9564 0.00261516 18.0001 4.0494 17.9999 9.0006ZM16.1535 9.00535C16.1549 5.04601 12.9715 1.85111 9.0202 1.8466C5.04589 1.84185 1.84909 5.02439 1.84648 8.98848C1.84363 12.9547 5.02759 16.1501 8.98598 16.1534C12.9579 16.1567 16.1521 12.9713 16.1535 9.00535Z" fill="#E33A23"/>
<path d="M8.26079 6.2553C8.26079 5.2335 8.25984 4.21171 8.26127 3.19015C8.26174 2.77597 8.51791 2.4863 8.92734 2.42974C9.31586 2.37604 9.71127 2.69874 9.73669 3.09154C9.74073 3.15474 9.73955 3.21819 9.73955 3.28164C9.73978 5.12325 9.7405 6.96462 9.73717 8.80622C9.73693 8.90579 9.76972 8.94904 9.85907 8.9873C11.3758 9.63792 12.8912 10.2923 14.4065 10.9465C14.7357 11.0886 14.8949 11.4087 14.8153 11.7623C14.7352 12.118 14.4303 12.3818 14.0955 12.3718C14.0035 12.3692 13.9073 12.3433 13.8222 12.3067C12.1203 11.5767 10.4192 10.8451 8.71941 10.1103C8.39909 9.97178 8.26483 9.7016 8.26317 9.36869C8.25747 8.3305 8.26079 7.29278 8.26079 6.2553Z" fill="#E33A23"/>
</svg>
