<svg width="29" height="29" viewBox="0 0 29 29" fill="none" xmlns="http://www.w3.org/2000/svg">
<path d="M16.4772 0C16.9031 0 17.329 0 17.7548 0C17.9219 0 18.0858 0.0345496 18.2523 0.0481453C19.4924 0.147268 20.6962 0.423679 21.8258 0.932886C25.7282 2.69217 28.0894 5.67605 28.8306 9.90887C29.1675 11.8324 28.9988 13.7282 28.3521 15.5657C27.0798 19.1833 24.6014 21.6195 21.0065 22.9155C19.3457 23.5142 17.621 23.6478 15.8781 23.4315C14.3301 23.2394 12.8777 22.7325 11.5222 21.9531C11.0867 21.7028 10.9667 21.7283 10.6088 22.0862C8.70744 23.9877 6.80662 25.8897 4.90523 27.7912C4.4681 28.2284 3.98851 28.6079 3.39793 28.8152C2.44327 29.1506 1.57241 29.0537 0.80744 28.3242C0.517339 28.0478 0.303388 27.735 0.150755 27.3851C0.0313408 27.1114 0 26.8099 0 26.5112C0 26.2833 0.0185431 26.0542 0.08877 25.8373C0.413404 24.835 1.16415 24.1272 1.89686 23.4009C3.57233 21.7401 5.23534 20.0664 6.90401 18.3977C7.27885 18.0228 7.29811 17.927 7.03764 17.4626C6.21548 15.999 5.69512 14.4425 5.53657 12.7642C5.33386 10.6186 5.66171 8.55853 6.63618 6.64178C8.49058 2.9935 11.4491 0.805442 15.5005 0.130275C15.8244 0.0770325 16.1516 0.0430476 16.4772 0ZM17.2314 3.07394C12.3647 3.12435 8.56249 6.96068 8.554 11.778C8.5455 16.5631 12.4587 20.4685 17.2354 20.4442C22.1083 20.4193 25.9225 16.5523 25.9083 11.7458C25.893 6.87118 22.0229 3.11755 17.2314 3.07394Z" fill="#B7B7B7"/>
<path d="M16.2955 4.85814C17.2536 4.66645 18.2502 4.64788 19.2077 4.84286C19.7159 4.94635 20.2132 5.09674 20.7001 5.29655C21.3377 5.5588 21.6321 6.2283 21.4017 6.85532C21.1729 7.47668 20.5037 7.80916 19.857 7.5724C18.9856 7.25294 18.1051 7.05923 17.1737 7.18554C15.3567 7.4325 14.0045 8.35519 13.1314 9.9723C13.0419 10.1377 12.9649 10.3105 12.867 10.4707C12.5368 11.0139 11.8772 11.2133 11.3183 10.9454C10.7442 10.6701 10.4695 10.0216 10.7068 9.42005C11.0063 8.66048 11.4355 7.97286 11.974 7.35886C13.1314 6.03798 14.5747 5.20082 16.2955 4.85814Z" fill="#B7B7B7"/>
</svg>
